<svg width="85" height="264" viewBox="0 0 85 264" fill="none" xmlns="http://www.w3.org/2000/svg">
<path d="M40.3265 4.22303C40.3265 4.22303 31.0914 4.16754 29.3442 17.1236C27.597 30.0797 30.093 35.8225 23.7976 41.6763C17.5022 47.5301 27.8189 50.8038 36.2775 45.2552C44.7638 39.7066 40.3265 4.22303 40.3265 4.22303Z" fill="#3B2645"/>
<path d="M40.3264 4.22302C40.3264 4.22302 31.84 8.82839 31.6736 21.7845C31.535 33.2424 34.4747 42.1202 29.9819 47.8353C32.0064 47.4469 34.1974 46.6146 36.2773 45.2552C44.7637 39.7065 40.3264 4.22302 40.3264 4.22302Z" fill="#3B2645"/>
<path d="M51.3087 33.8805L48.3413 46.1707L29.3441 44.7003C29.3441 44.7003 34.1697 37.1542 36.7211 24.0872L51.3087 33.8805Z" fill="#FFEDE5"/>
<path d="M40.0492 29.6635L49.5894 41.0659L51.3088 33.8804L40.0492 29.6635Z" fill="#DF845C"/>
<path d="M61.4313 7.96843C61.4313 7.96843 65.0921 13.1009 63.4835 18.3999C61.875 23.6988 61.9582 24.6143 61.6809 26.5841C61.4036 28.5261 56.6889 37.4317 54.4426 37.7646C52.1962 38.0975 38.5515 32.7431 35.8614 25.197C33.1713 17.6508 50.9205 -3.32304 61.4313 7.96843Z" fill="#FFEDE5"/>
<path d="M35.9446 27.6938L39.6608 21.7845L41.3525 22.4503C41.3525 22.4503 42.7669 22.0619 43.3493 16.7075C43.3493 16.7075 47.5925 14.9042 48.3967 10.7982C48.3967 10.7982 62.5961 1.36553 63.8995 15.903C63.8995 15.903 66.035 9.24459 59.6286 4.72245C53.2223 0.200314 45.152 -1.10362 40.0491 2.6972C34.9462 6.49801 26.8204 19.7038 35.9446 27.6938Z" fill="#3B2645"/>
<path d="M39.9328 25.5955C41.508 24.8417 41.8203 22.2136 40.6304 19.7256C39.4404 17.2376 37.1989 15.8319 35.6238 16.5858C34.0486 17.3397 33.7363 19.9677 34.9263 22.4557C36.1162 24.9437 38.3577 26.3494 39.9328 25.5955Z" fill="#FFEDE5"/>
<path d="M39.3558 23.2827C39.2726 23.2827 39.1894 23.255 39.134 23.1718L37.359 20.7304C37.2758 20.6194 37.3036 20.4252 37.4145 20.342C37.5254 20.2587 37.7196 20.2865 37.8028 20.3975L39.5777 22.8389C39.6609 22.9498 39.6331 23.144 39.5222 23.2273C39.4667 23.255 39.4113 23.2827 39.3558 23.2827Z" fill="#472938"/>
<path d="M51.1978 28.859C51.1978 28.859 53.4441 30.4126 57.0217 30.5513C57.0217 30.5513 53.1391 31.3559 51.1978 28.859Z" fill="#472938"/>
<path d="M57.0495 27.5829C56.4394 27.5829 55.857 27.4996 55.3856 27.2499C55.2469 27.1667 55.1914 27.0003 55.2746 26.8893C55.3578 26.7506 55.5242 26.6951 55.6352 26.7783C56.7999 27.3609 59.0463 26.8615 59.3237 26.5286C59.3514 26.2512 58.9354 25.0027 58.6581 24.1982C58.4085 23.4769 58.1866 22.811 58.1034 22.3394C57.7983 21.0355 59.1295 19.4264 59.185 19.3431C59.2959 19.2322 59.4623 19.2044 59.5733 19.3154C59.6842 19.4264 59.7119 19.5928 59.601 19.7038C59.2682 20.1199 58.4362 21.3684 58.6303 22.2284C58.7413 22.6723 58.9631 23.3659 59.185 24.0317C59.7397 25.6686 59.9615 26.4177 59.8229 26.7506C59.7397 26.9448 59.5455 27.0835 59.1573 27.2499C58.7135 27.4164 57.8815 27.5829 57.0495 27.5829Z" fill="#472938"/>
<path d="M63.1509 19.6206C63.1509 19.6206 63.9552 18.927 63.2063 18.4831C62.4575 18.0392 61.1541 18.1502 60.9877 18.5663C60.8213 18.9825 60.7658 19.2322 61.3205 19.2599C61.9029 19.2876 63.0677 18.9825 63.1509 19.6206Z" fill="#472938"/>
<path d="M48.3968 17.318C48.3968 17.318 50.5877 16.1805 52.1685 16.6521C53.7493 17.1237 54.1098 17.7896 54.8863 17.5954C55.6629 17.3734 54.9695 16.125 53.2501 15.6534C51.5306 15.1817 49.1456 15.9031 48.3968 17.318Z" fill="#472938"/>
<path d="M51.3365 21.2297C51.0037 21.1742 50.7818 20.869 50.8095 20.5361L50.8927 20.0645C50.9482 19.7316 51.2533 19.5096 51.5861 19.5374C51.9188 19.5929 52.1407 19.898 52.113 20.231L52.0298 20.7026C51.9743 21.0355 51.6693 21.2852 51.3365 21.2297Z" fill="#472938"/>
<path d="M60.4052 22.3393C60.1279 22.3116 59.9615 22.0619 59.9892 21.7845L60.0447 21.3961C60.0724 21.1186 60.322 20.9522 60.5993 20.9799C60.8766 21.0077 61.043 21.2574 61.0153 21.5348L60.9599 21.9232C60.9321 22.2006 60.6825 22.3671 60.4052 22.3393Z" fill="#472938"/>
<path d="M74.9374 248.335C76.1299 249.334 77.6552 250.638 78.8755 248.557C78.7368 247.226 78.9032 243.064 78.9032 243.064L68.4201 243.647L69.0025 248.002C69.0025 247.975 73.7448 247.337 74.9374 248.335Z" fill="#FFEDE5"/>
<path d="M78.0711 260.015C79.7628 259.405 83.4236 255.715 84.1724 254.938C83.9228 253.717 83.3404 252.497 82.5639 252.358C81.4268 252.191 79.014 249.861 78.8754 248.529C77.6274 250.638 76.1298 249.334 74.9373 248.307C73.7448 247.309 69.0024 247.947 69.0024 247.947C69.0024 247.947 67.4494 255.909 67.283 260.043C69.6403 260.209 76.5181 260.598 78.0711 260.015Z" fill="#3B2645"/>
<path d="M67.588 262.429C68.7806 263.455 77.3223 263.15 78.2098 262.9C79.0973 262.651 83.4236 258.378 84.0615 257.352C84.3388 256.908 84.3665 255.909 84.1447 254.938C83.3959 255.715 79.7351 259.405 78.0434 260.015C76.4904 260.57 69.5848 260.209 67.2552 260.071C67.2552 261.319 67.3107 262.207 67.588 262.429Z" fill="#E5E5E5"/>
<path d="M9.09911 248.224C11.7892 248.585 12.4548 250.166 13.2868 250.083C14.1188 250 16.0324 248.335 16.0324 248.335C16.0324 247.115 17.2526 243.064 17.2526 243.064L6.18715 243.425L4.99463 248.918C5.02236 248.918 6.43674 247.864 9.09911 248.224Z" fill="#FFEDE5"/>
<path d="M16.6424 256.547C17.724 256.131 18.6947 255.215 19.3048 254.605C19.2771 253.606 18.9997 252.469 18.2232 252.025C16.892 251.276 16.06 248.335 16.06 248.335C16.06 248.335 14.1464 249.972 13.3144 250.083C12.4824 250.194 11.7891 248.613 9.12674 248.224C6.43664 247.864 5.04998 248.918 5.04998 248.918C4.05159 251.803 3.63559 256.27 3.52466 258.85C4.88358 259.127 7.10223 259.46 10.1806 259.46C15.7549 259.432 14.923 257.185 16.6424 256.547Z" fill="#3B2645"/>
<path d="M3.497 260.764C3.63567 261.208 4.05166 262.429 10.2639 262.429C16.476 262.429 16.2819 259.349 16.6979 258.351C17.1416 257.324 18.8056 256.686 19.0829 256.187C19.1939 255.965 19.3048 255.327 19.2771 254.605C18.6947 255.216 17.6963 256.131 16.6147 256.547C14.8953 257.185 15.755 259.46 10.1252 259.46C7.04682 259.46 4.82818 259.127 3.46927 258.85C3.44153 259.904 3.44153 260.653 3.497 260.764Z" fill="#E5E5E5"/>
<path d="M67.7821 99.2989C67.7821 99.2989 75.3532 116.611 77.3778 130.288C79.4023 143.965 75.0759 181.03 75.7138 184.193C76.3516 187.356 79.9015 197.066 80.4284 210.105C80.9276 223.144 78.9031 243.036 78.9031 243.036C78.9031 243.036 72.7463 245.783 68.42 243.619C68.42 243.619 65.0643 222.423 63.2062 213.518C61.3481 204.612 61.3481 194.181 59.2958 189.298C57.2436 184.415 51.9188 150.097 50.3935 144.576C50.3935 144.576 44.7637 172.152 39.5499 184.526C34.3361 196.899 32.8939 198.203 31.3131 205.333C29.7324 212.463 18.5837 238.264 17.2802 243.064C17.2802 243.064 11.2621 246.116 6.21472 243.425C6.21472 243.425 9.18217 211.908 14.5069 199.424C19.8317 186.94 20.4695 186.607 21.662 177.507C22.8546 168.407 17.9458 128.651 31.2577 103.238C31.2299 103.211 49.8943 99.1602 67.7821 99.2989Z" fill="#AB8DA8"/>
<path d="M50.3934 100.242C51.6137 105.569 67.7266 129.816 67.7266 129.816L58.3251 99.5209L50.3934 100.242Z" fill="#543753"/>
<path d="M43.3493 137.668C43.3493 137.668 45.7898 143.438 57.9369 142.634C57.9369 142.634 51.281 144.104 51.8911 151.955L50.3935 144.604L48.7018 152.372C48.7018 152.372 49.1455 144.659 40.4651 141.996L46.1504 142.162C46.1781 142.134 43.3771 140.137 43.3493 137.668Z" fill="#543753"/>
<path d="M25.3784 45.5603C25.3784 45.5603 21.2739 48.9727 9.21004 67.5052C-2.85385 86.0376 0.25226 87.0364 2.22131 89.7552C4.16262 92.474 18.778 107.788 19.8595 109.175C20.9411 110.59 24.9347 114.807 27.0701 113.115C29.2056 111.423 28.5123 106.568 30.8973 104.737C33.2823 102.878 35.2791 101.019 35.4733 100.02C35.6674 99.0214 35.1682 98.1891 34.9463 98.1891C34.7245 98.1891 32.3117 100.27 30.8418 100.991C29.372 101.713 25.9331 104.209 25.8776 104.209C25.8222 104.209 12.7599 84.5117 12.7599 84.5117L27.292 67.1722L25.3784 45.5603Z" fill="#FFEDE5"/>
<path d="M25.6557 51.8303C25.6557 51.8303 20.2755 58.4055 21.7176 74.0526L27.3475 67.3665L25.6557 51.8303Z" fill="#DF845C"/>
<path d="M10.8461 99.3821L16.3095 89.8107L12.9538 84.7059L10.0419 98.522L10.8461 99.3821Z" fill="#DF845C"/>
<path d="M45.1241 42.2866C48.674 43.1467 58.02 48.3624 63.8994 59.2932C69.7788 70.224 67.6989 72.166 65.4525 75.301L64.5928 89.339L68.3644 101.074L31.2576 103.238C31.2576 103.238 34.1418 91.1423 32.6443 87.3138C31.1467 83.4852 14.8951 61.8456 23.9083 47.5023C28.4843 40.1504 45.1241 42.2866 45.1241 42.2866Z" fill="#FFEDE5"/>
<path d="M64.5928 89.3113L65.4525 75.2733C67.6989 72.1661 69.8066 70.1963 63.8995 59.2655C62.4574 56.6021 60.8211 54.2717 59.1017 52.2465C58.7966 56.5189 57.9092 61.6237 55.8292 66.9226C51.1423 78.9354 32.3393 78.2141 27.3196 77.7979C29.7324 82.4033 32.0619 85.9267 32.5889 87.2584C32.8662 87.9519 33.0049 88.9229 33.0326 90.0327C47.2597 91.3921 64.5928 89.3113 64.5928 89.3113Z" fill="#AB8DA8"/>
<path d="M45.4293 42.3701C45.3184 42.3423 45.2075 42.3146 45.1243 42.2868C45.1243 42.2868 44.8747 42.2591 44.4587 42.2036C38.3851 43.8682 33.6428 47.6413 30.4812 53.3564C29.4273 49.6388 28.845 46.1709 29.2055 43.5353C29.15 43.563 29.0945 43.5908 29.0391 43.5908C28.9004 43.6463 28.7618 43.7017 28.6231 43.7572C28.1239 43.9514 27.6524 44.1734 27.2087 44.4231C24.1026 47.78 23.021 54.0499 23.9917 63.1497C24.4354 67.2279 25.2119 71.1397 25.9052 74.136C25.9052 74.4134 25.9052 74.6909 25.9052 74.9683C26.0439 75.2457 26.1549 75.4954 26.2935 75.7728C26.349 75.9116 26.4322 76.0503 26.4876 76.189C26.8204 76.8548 27.1532 77.4929 27.486 78.131C27.2364 77.2155 26.8482 75.8006 26.4599 74.0805C26.4599 70.8346 26.7372 66.2015 27.9575 61.4574C28.5676 59.016 29.3719 56.8243 30.3425 54.8268C33.615 65.4524 40.3264 77.3819 40.7424 78.1033L41.5467 79.5182L41.2694 77.9091C41.2416 77.7426 38.3297 61.3464 40.3542 51.6918C41.6299 45.616 43.5712 43.4521 44.7915 42.6753C45.1243 42.592 45.4293 42.5088 45.7621 42.4533C45.6512 42.4256 45.5403 42.3978 45.4293 42.3701ZM27.4028 61.3464C26.4322 65.0917 26.0717 68.7816 25.9607 71.7778C24.1026 62.9278 22.3831 48.8342 28.6231 43.9237C28.3458 46.7258 29.0114 50.3046 30.1207 54.1054C28.9836 56.2694 28.0962 58.6831 27.4028 61.3464ZM39.7718 51.6086C38.1078 59.5708 39.7441 72.0275 40.4374 76.4387C38.4961 72.8043 33.3377 62.8723 30.7031 54.1054C33.5873 48.5845 37.8305 44.9224 43.4048 43.0914C42.1846 44.3676 40.7702 46.8367 39.7718 51.6086Z" fill="#AB8DA8"/>
<path d="M46.6495 88.4512H32.8662C32.6998 88.4512 32.5889 88.3403 32.5889 88.1738C32.5889 88.0073 32.6998 87.8964 32.8662 87.8964H46.6495C46.8159 87.8964 46.9269 88.0073 46.9269 88.1738C46.9269 88.3403 46.7882 88.4512 46.6495 88.4512Z" fill="#472938"/>
<path d="M50.8927 102.073L58.8243 101.602L54.7475 90.1437C52.8062 90.2546 50.6985 90.3656 48.4521 90.4211C49.2009 94.8877 50.0052 99.0215 50.8927 102.073Z" fill="#DF845C"/>
<path d="M45.2075 63.2882C45.2075 63.2882 45.6789 68.6704 46.4554 75.6339C47.3706 75.2733 48.2858 74.8571 49.1456 74.3577L45.2075 63.2882Z" fill="#DF845C"/>
<path d="M46.4832 75.6341C47.0101 80.2394 47.6757 85.5106 48.48 90.4489C50.6987 90.3934 52.8341 90.2825 54.7754 90.1715L49.1733 74.3856C48.2859 74.8573 47.3984 75.2734 46.4832 75.6341Z" fill="#543753"/>
<path d="M33.0881 103.1L33.8647 103.044C33.8647 103.044 35.1126 101.962 35.3622 100.547C35.0294 101.213 34.1697 102.129 33.0881 103.1Z" fill="#DF845C"/>
<path d="M45.7345 42.4532C45.7345 42.4532 57.4101 44.8114 59.0741 50.4433C60.7658 56.0751 62.0138 89.3115 62.0138 89.3115C62.0138 89.3115 73.6894 122.465 74.9374 127.514C76.1854 132.563 78.7923 140.692 78.9587 142.329C79.1251 143.966 77.5166 147.739 76.9619 148.349C76.4072 148.959 73.0793 150.208 72.3305 150.374C71.5817 150.541 67.0612 147.572 67.2831 146.962C67.5049 146.351 69.3076 145.269 69.3076 145.269L69.6404 143.022C69.6404 143.022 66.3956 136.697 66.6175 133.479C66.8393 130.288 66.3401 128.207 65.2586 126.265C64.177 124.323 51.1701 95.2485 49.8389 90.1715C48.5078 85.0945 44.6529 62.4283 44.7361 58.1559C44.8193 53.8834 45.7345 42.4532 45.7345 42.4532Z" fill="#FFEDE5"/>
</svg>
