<svg width="35" height="39" viewBox="0 0 35 39" fill="none" xmlns="http://www.w3.org/2000/svg">
<path d="M32.2933 10.3027H12.5327C12.0534 10.3027 11.5937 10.4975 11.2547 10.8443C10.9158 11.1911 10.7253 11.6614 10.7253 12.1518V32.3679C10.7253 32.8583 10.9158 33.3287 11.2547 33.6754C11.5937 34.0222 12.0534 34.217 12.5327 34.217H26.2045L31.7043 38.8499V34.217H32.2789C32.7583 34.217 33.218 34.0222 33.557 33.6754C33.8959 33.3287 34.0863 32.8583 34.0863 32.3679V12.1518C34.0863 11.6639 33.8979 11.1958 33.562 10.8495C33.2262 10.5031 32.7702 10.3066 32.2933 10.3027Z" fill="white"/>
<path d="M12.7511 10.3028H32.3767C32.8339 10.3028 33.2724 10.4886 33.5958 10.8194C33.9191 11.1502 34.1007 11.5988 34.1007 12.0666V17.7843C34.1007 17.8022 34.0938 17.8194 34.0814 17.8321C34.069 17.8448 34.0522 17.8519 34.0346 17.8519H10.7915C10.7739 17.8519 10.7571 17.8448 10.7447 17.8321C10.7323 17.8194 10.7254 17.8022 10.7254 17.7843V12.3723C10.7238 12.0999 10.7752 11.8298 10.8765 11.5778C10.9778 11.3258 11.127 11.0969 11.3155 10.9044C11.5039 10.7119 11.7279 10.5596 11.9743 10.4563C12.2208 10.353 12.4848 10.3008 12.7511 10.3028Z" fill="#FF725E"/>
<path d="M20.8081 21.415V29.5462H18.9691V22.926H17.3801V21.415H20.8081Z" fill="#263238"/>
<path d="M28.423 21.415V22.635L25.4633 29.5462H23.4519L26.3024 22.9495H23.6789V24.2812H22.0439V21.415H28.423Z" fill="#263238"/>
<path d="M25.6789 14.5803C25.6789 14.6215 24.0726 14.6568 22.0928 14.6568C20.113 14.6568 18.5039 14.6274 18.5039 14.5803C18.5039 14.5333 20.1102 14.5039 22.0928 14.5039C24.0755 14.5039 25.6789 14.5451 25.6789 14.5803Z" fill="#263238"/>
<path d="M32.2935 10.3028C32.2935 10.3028 32.3337 10.3028 32.4171 10.3028C32.5375 10.308 32.657 10.3267 32.7734 10.3586C33.0026 10.4197 33.2178 10.5265 33.4066 10.6728C33.5954 10.819 33.7542 11.002 33.8739 11.2111C34.05 11.5191 34.1377 11.8716 34.1268 12.2282C34.1268 12.6133 34.1268 13.0367 34.1268 13.4894C34.1268 14.4007 34.1268 15.4442 34.1268 16.6113C34.1268 18.963 34.1268 21.7822 34.1268 25.0217C34.1268 26.6415 34.1268 28.3641 34.1268 30.175C34.1268 30.6306 34.1268 31.0892 34.1268 31.5537V32.2533C34.1352 32.4962 34.1032 32.7387 34.0319 32.9706C33.877 33.449 33.5434 33.8454 33.1038 34.073C32.8988 34.1821 32.6756 34.251 32.4458 34.2758C32.1958 34.2758 31.9631 34.2758 31.7188 34.2758L31.7849 34.2082C31.7849 35.678 31.7849 37.2331 31.7849 38.8382V38.991L31.67 38.894L26.1587 34.2758L26.2047 34.2934H12.51C12.1902 34.2892 11.8768 34.2017 11.5993 34.0392C11.3218 33.8766 11.0893 33.6444 10.9238 33.3645C10.815 33.183 10.7364 32.9844 10.6911 32.7766C10.6565 32.5679 10.643 32.3561 10.6508 32.1445V28.467C10.6508 25.251 10.6508 22.1496 10.6508 19.1953C10.6508 17.7156 10.6508 16.2762 10.6508 14.8769C10.6508 14.1772 10.6508 13.4913 10.6508 12.8191C10.638 12.4787 10.6495 12.1378 10.6853 11.799C10.7508 11.4604 10.9036 11.1457 11.1278 10.8877C11.3481 10.6358 11.6296 10.4482 11.9439 10.3439C12.2525 10.2579 12.5731 10.226 12.8921 10.2498H18.1562L28.5006 10.2763H31.3137H32.0435C32.2102 10.2763 32.2935 10.2763 32.2935 10.2763H32.0435H31.3137H28.5006L18.1562 10.2998H14.7282H12.9065C12.6011 10.2769 12.2942 10.3067 11.9985 10.388C11.7046 10.4877 11.4412 10.664 11.2342 10.8995C11.0254 11.14 10.8835 11.4334 10.8233 11.7491C10.7903 12.0801 10.7807 12.4132 10.7945 12.7456V14.8034C10.7945 16.2027 10.7945 17.6421 10.7945 19.1218C10.7945 22.0615 10.7945 25.1775 10.7945 28.3935V32.1298C10.7872 32.3266 10.7998 32.5236 10.8319 32.7178C10.8722 32.9128 10.9441 33.0996 11.0445 33.2704C11.2483 33.6159 11.5617 33.8794 11.9324 34.0171C12.319 34.1278 12.7221 34.1656 13.122 34.1288H26.2248L26.2449 34.1465L31.7418 38.7823L31.6269 38.8352C31.6269 37.2302 31.6269 35.6663 31.6269 34.2053V34.1376H31.6958C31.9343 34.1376 32.1814 34.1376 32.4142 34.1376C32.7567 34.1112 33.0839 33.9818 33.3548 33.7658C33.6257 33.5499 33.8283 33.2568 33.9371 32.9236C34.0068 32.7056 34.0379 32.4766 34.0291 32.2474V31.5478C34.0291 31.0833 34.0291 30.6247 34.0291 30.1691C34.0291 28.3582 34.0291 26.6415 34.0291 25.0158C34.0291 21.7822 34.0291 18.9454 34.0434 16.6054C34.0434 15.4295 34.0434 14.3948 34.0434 13.4835C34.0434 12.5722 34.1584 11.7696 33.8078 11.2287C33.5755 10.8107 33.1914 10.5033 32.7389 10.3733C32.5928 10.3363 32.4437 10.3126 32.2935 10.3028Z" fill="#263238"/>
<path d="M25.8999 7.95996H25.8511C25.4448 7.95996 25.1155 8.29689 25.1155 8.71252V12.6076C25.1155 13.0232 25.4448 13.3601 25.8511 13.3601H25.8999C26.3062 13.3601 26.6355 13.0232 26.6355 12.6076V8.71252C26.6355 8.29689 26.3062 7.95996 25.8999 7.95996Z" fill="#E0E0E0"/>
<path d="M25.9025 13.3598C26.0589 13.3373 26.2072 13.2746 26.3335 13.1775C26.4745 13.0592 26.5652 12.8895 26.5864 12.7042C26.5864 12.4896 26.5864 12.2221 26.5864 11.9399C26.5864 11.352 26.5864 10.6817 26.5864 9.93503C26.5864 9.55582 26.5864 9.15896 26.5864 8.75916C26.5911 8.66282 26.5757 8.56655 26.5414 8.47671C26.507 8.38688 26.4545 8.30552 26.3871 8.23801C26.3198 8.17049 26.2392 8.11837 26.1507 8.08507C26.0622 8.05176 25.9678 8.03805 25.8738 8.04482C25.779 8.04461 25.6853 8.06523 25.5991 8.1053C25.5128 8.14537 25.436 8.20394 25.3738 8.27705C25.3134 8.35011 25.268 8.43489 25.2403 8.52632C25.2127 8.61774 25.2033 8.71393 25.2129 8.80914C25.2129 9.22069 25.2129 9.61755 25.2129 9.98501C25.2129 10.7346 25.2129 11.4137 25.2129 11.9928C25.2129 12.1339 25.2129 12.2691 25.2129 12.3985C25.2025 12.5158 25.2025 12.6339 25.2129 12.7512C25.2478 12.9353 25.3507 13.0985 25.5002 13.2069C25.6338 13.2951 25.787 13.3477 25.9456 13.3598C25.9039 13.3686 25.8609 13.3686 25.8192 13.3598C25.6945 13.3536 25.5736 13.3141 25.4686 13.2451C25.2989 13.1332 25.1784 12.9582 25.1324 12.7571C25.114 12.6346 25.1073 12.5106 25.1123 12.3867C25.1123 12.2574 25.1123 12.1222 25.1123 11.9811C25.1123 11.3931 25.1123 10.7229 25.0951 9.97325C25.0951 9.59697 25.0951 9.20011 25.0951 8.79738C25.0849 8.68403 25.0969 8.56974 25.1305 8.46121C25.164 8.35269 25.2184 8.2521 25.2904 8.16535C25.3656 8.074 25.4593 8.00042 25.5649 7.94967C25.6706 7.89892 25.7858 7.87221 25.9025 7.87138C26.0178 7.86492 26.1331 7.8833 26.241 7.92533C26.3489 7.96736 26.447 8.03211 26.5289 8.11537C26.5969 8.20443 26.6469 8.30644 26.676 8.41544C26.7051 8.52445 26.7127 8.63829 26.6984 8.75034C26.6984 9.15896 26.6984 9.55582 26.6984 9.92621C26.6984 10.6729 26.6984 11.352 26.6812 11.9311C26.6812 12.225 26.6812 12.469 26.6611 12.7072C26.6467 12.8083 26.6126 12.9055 26.5608 12.9928C26.5089 13.0802 26.4404 13.156 26.3594 13.2157C26.2607 13.2925 26.1435 13.3402 26.0203 13.3539C25.9818 13.3637 25.9418 13.3657 25.9025 13.3598Z" fill="#263238"/>
<path d="M18.7654 7.95996H18.7166C18.3103 7.95996 17.981 8.29689 17.981 8.71252V12.6076C17.981 13.0232 18.3103 13.3601 18.7166 13.3601H18.7654C19.1717 13.3601 19.501 13.0232 19.501 12.6076V8.71252C19.501 8.29689 19.1717 7.95996 18.7654 7.95996Z" fill="#E0E0E0"/>
<path d="M18.7651 13.3599C18.9226 13.3381 19.072 13.2754 19.1989 13.1776C19.34 13.0593 19.4306 12.8896 19.4518 12.7043C19.4518 12.4897 19.4518 12.2222 19.4518 11.94C19.4518 11.3521 19.4518 10.6818 19.4346 9.93515C19.4346 9.55593 19.4346 9.15908 19.4346 8.75928C19.4393 8.66294 19.4239 8.56667 19.3896 8.47683C19.3553 8.387 19.3027 8.30564 19.2353 8.23813C19.168 8.17061 19.0874 8.11849 18.9989 8.08519C18.9104 8.05188 18.816 8.03817 18.722 8.04494C18.6272 8.04434 18.5334 8.06479 18.447 8.10488C18.3607 8.14498 18.2839 8.20376 18.222 8.27717C18.1612 8.35009 18.1154 8.43477 18.0872 8.52618C18.0591 8.61759 18.0492 8.71386 18.0582 8.80926C18.0582 9.22081 18.0582 9.61767 18.0582 9.98513C18.0582 10.7347 18.0582 11.4138 18.0409 11.9929C18.0409 12.134 18.0409 12.2693 18.0409 12.3986C18.0304 12.5159 18.0304 12.634 18.0409 12.7514C18.0748 12.9359 18.1779 13.0994 18.3283 13.207C18.4608 13.2954 18.613 13.348 18.7708 13.3599C18.7708 13.3599 18.7306 13.3599 18.6444 13.3599C18.5206 13.3536 18.4007 13.3141 18.2967 13.2452C18.1262 13.1342 18.0054 12.9589 17.9605 12.7572C17.9426 12.6347 17.9349 12.5108 17.9375 12.3868C17.9375 12.2575 17.9375 12.1223 17.9375 11.9812C17.9375 11.3932 17.9375 10.723 17.9375 9.97337C17.9375 9.59709 17.9375 9.20023 17.9375 8.7975C17.9206 8.56844 17.9917 8.34169 18.1358 8.16547C18.2108 8.07397 18.3045 8.00028 18.4101 7.94952C18.5158 7.89875 18.6311 7.87213 18.7478 7.8715C18.8627 7.86471 18.9777 7.88296 19.0852 7.92502C19.1927 7.96708 19.2902 8.032 19.3714 8.11549C19.45 8.19748 19.5115 8.29505 19.552 8.40222C19.5926 8.50938 19.6112 8.62388 19.607 8.7387C19.607 9.14732 19.607 9.54418 19.607 9.91457C19.607 10.6613 19.607 11.3403 19.607 11.9194C19.607 12.2134 19.607 12.4574 19.5869 12.6955C19.5593 12.8968 19.4563 13.0792 19.2995 13.2041C19.2006 13.2803 19.0835 13.328 18.9604 13.3422C18.8988 13.3692 18.8304 13.3753 18.7651 13.3599Z" fill="#263238"/>
<g opacity="0.3">
<path opacity="0.3" d="M17.1096 10.5293C17.2054 11.4867 17.1158 12.4541 16.846 13.3762C16.5763 14.2982 16.1315 15.1568 15.5372 15.9029C14.943 16.649 14.2108 17.268 13.3826 17.7245C12.5544 18.181 11.6464 18.4661 10.7104 18.5634L10.9978 14.5449L14.558 10.5852L17.1096 10.5293Z" fill="black"/>
</g>
<path d="M11.4734 16.8952C15.0619 15.9696 17.2376 12.2432 16.3329 8.57197C15.4282 4.90075 11.7857 2.67495 8.19723 3.60051C4.60875 4.52606 2.43311 8.25248 3.3378 11.9237C4.2425 15.5949 7.88494 17.8207 11.4734 16.8952Z" fill="white"/>
<path d="M9.82973 17.8407C8.40652 17.8397 7.01358 17.4202 5.81689 16.6321C4.62021 15.8439 3.67026 14.7204 3.08023 13.3954C2.4902 12.0704 2.28499 10.5998 2.48904 9.15881C2.69309 7.71783 3.2978 6.36726 4.23111 5.26803C5.16442 4.1688 6.38698 3.36728 7.75308 2.95897C9.11919 2.55066 10.5712 2.55279 11.9362 2.96511C13.3011 3.37742 14.5214 4.18253 15.4517 5.28449C16.3819 6.38646 16.9828 7.7388 17.1828 9.18037C17.4568 11.1735 16.947 13.1965 15.7652 14.8056C14.5834 16.4148 12.826 17.4787 10.8785 17.7642C10.5312 17.8157 10.1807 17.8412 9.82973 17.8407ZM9.84697 4.13295C9.55856 4.13262 9.27049 4.15325 8.98494 4.19469C7.81521 4.36657 6.72154 4.88935 5.84215 5.69696C4.96276 6.50458 4.33713 7.56076 4.04432 8.73204C3.75151 9.90332 3.80467 11.1371 4.19708 12.2775C4.58948 13.4179 5.30353 14.4136 6.24896 15.139C7.1944 15.8643 8.32879 16.2866 9.50876 16.3525C10.6887 16.4184 11.8613 16.125 12.8784 15.5094C13.8954 14.8937 14.7112 13.9834 15.2226 12.8935C15.7341 11.8036 15.9183 10.5831 15.7519 9.38615C15.5494 7.93051 14.8411 6.59825 13.7566 5.63346C12.6721 4.66867 11.2841 4.13596 9.84697 4.13295Z" fill="#455A64"/>
<path d="M9.8466 4.13237C9.87901 4.12774 9.91189 4.12774 9.9443 4.13237C10.0075 4.13237 10.1023 4.13237 10.2316 4.13237C10.5979 4.14931 10.9616 4.20247 11.3178 4.29111C11.8825 4.4339 12.4237 4.66071 12.924 4.9643C13.5907 5.36626 14.1759 5.89513 14.6481 6.52232C15.2186 7.2848 15.6055 8.17407 15.7774 9.11806C15.8212 9.3769 15.8519 9.63791 15.8693 9.90001C15.8765 10.0342 15.8765 10.1686 15.8693 10.3027C15.8693 10.438 15.8693 10.5761 15.8693 10.7114C15.8236 11.2767 15.7077 11.8339 15.5245 12.3693C15.3116 12.9259 15.0285 13.4516 14.6826 13.9332C14.3152 14.4276 13.883 14.8678 13.3982 15.2414C12.3585 16.0181 11.1038 16.4352 9.81648 16.432C8.52916 16.4289 7.27641 16.0056 6.24045 15.2238C5.75484 14.8499 5.32254 14.4086 4.95602 13.9127C4.61788 13.4272 4.34352 12.8985 4.13997 12.3399C3.95859 11.8053 3.84465 11.2491 3.8009 10.6849C3.72452 9.54118 3.96093 8.39828 4.48367 7.38426C5.0064 6.37024 5.7948 5.52517 6.76054 4.94372C7.44698 4.53408 8.20747 4.27107 8.99607 4.17058L9.45869 4.14413L9.74603 4.12943C9.77852 4.12613 9.81124 4.12613 9.84373 4.12943H9.74603L9.45869 4.15589L8.99894 4.19704C8.81791 4.22644 8.6139 4.26759 8.38403 4.32639C7.08114 4.66715 5.93013 5.4508 5.11981 6.54878C4.56199 7.29857 4.18316 8.17134 4.01354 9.09748C3.91896 9.61082 3.89095 10.1347 3.93021 10.6555C3.97416 11.2079 4.08714 11.7523 4.2664 12.2753C4.46646 12.8197 4.73603 13.3347 5.06809 13.8068C5.42733 14.29 5.84986 14.7203 6.32378 15.0856C7.33513 15.8463 8.55688 16.2581 9.81218 16.2613C11.0675 16.2645 12.2912 15.8589 13.3062 15.1032C13.7816 14.7398 14.2052 14.3104 14.5648 13.8274C14.8986 13.3565 15.1701 12.8425 15.3722 12.2988C15.5555 11.7775 15.6714 11.234 15.717 10.682C15.7343 10.5497 15.717 10.4145 15.717 10.2822C15.7242 10.151 15.7242 10.0195 15.717 9.88825C15.6912 9.62662 15.6797 9.37087 15.6308 9.121C15.4667 8.19395 15.0928 7.31908 14.5389 6.56642C13.7275 5.47068 12.5817 4.68338 11.2833 4.32933C10.931 4.23528 10.5715 4.17234 10.2087 4.14119C9.97878 4.13825 9.8466 4.13825 9.8466 4.13237Z" fill="#263238"/>
<path d="M9.82962 17.84C9.82962 17.84 9.86985 17.84 9.95031 17.84L10.3009 17.8135C10.456 17.7988 10.6457 17.7812 10.8756 17.7459L11.6428 17.5842C12.3316 17.3934 12.9925 17.1097 13.6082 16.7405C14.4149 16.2364 15.1233 15.5835 15.6972 14.815C16.3839 13.8777 16.8509 12.7915 17.062 11.6402C17.0953 11.4852 17.1183 11.328 17.131 11.1698C17.131 11.0111 17.1655 10.8524 17.1799 10.6877C17.1942 10.5231 17.1799 10.3644 17.1799 10.1968V9.94987L17.1569 9.7C17.1124 9.01217 16.9731 8.33423 16.7431 7.68632C16.2266 6.23834 15.2886 4.98717 14.0555 4.10148C12.8224 3.21579 11.3535 2.73815 9.84686 2.73297C8.33591 2.72787 6.8602 3.19965 5.62092 4.08398C4.38165 4.96832 3.43914 6.22217 2.9219 7.67456C2.46878 8.94323 2.36248 10.3143 2.61444 11.6402C2.72133 12.2377 2.89787 12.82 3.14028 13.3746C3.25724 13.6343 3.38769 13.8875 3.53107 14.133L3.7437 14.4887L3.98219 14.815C4.54927 15.5843 5.25552 16.235 6.06256 16.7317C6.67621 17.105 7.33771 17.3889 8.02798 17.5754C8.27914 17.6452 8.53445 17.6982 8.79232 17.7341C8.9823 17.769 9.17424 17.7916 9.367 17.8017L9.72043 17.8282C9.7606 17.825 9.80095 17.825 9.84112 17.8282H9.72043H9.367C9.17437 17.8239 8.9823 17.8052 8.79232 17.7724C8.53234 17.7435 8.27489 17.6944 8.02224 17.6254C7.32254 17.4483 6.65108 17.1702 6.02808 16.7993C5.20033 16.304 4.47354 15.6503 3.88737 14.8738L3.646 14.5446L3.42762 14.1859C3.27997 13.9328 3.14569 13.6718 3.02534 13.404C2.77713 12.8402 2.59578 12.2481 2.48514 11.6402C2.2285 10.2943 2.33377 8.90234 2.78972 7.61283C3.31645 6.13423 4.27567 4.85755 5.53687 3.95652C6.79806 3.05549 8.29997 2.57386 9.83824 2.57717C11.3772 2.57847 12.8784 3.06445 14.1379 3.96907C15.3974 4.87369 16.3542 6.15309 16.8781 7.63341C17.1119 8.29558 17.2522 8.98848 17.2948 9.69118L17.3149 9.94399V10.1968C17.3149 10.3644 17.3149 10.5319 17.3149 10.6966C17.3149 10.8612 17.2689 11.0199 17.2689 11.1816C17.2567 11.3429 17.2327 11.5031 17.1971 11.6608C16.972 12.8298 16.4852 13.9296 15.7748 14.8738C15.1895 15.6491 14.4672 16.3052 13.6455 16.8081C13.0197 17.1738 12.3491 17.4526 11.6514 17.6371L10.8756 17.7841C10.685 17.8119 10.4932 17.8295 10.3009 17.837C10.1457 17.837 10.0135 17.837 9.94743 17.837L9.82962 17.84Z" fill="#263238"/>
<path d="M13.2357 0.799223L12.6235 1.80371L16.5607 4.31525L17.1729 3.31077L13.2357 0.799223Z" fill="#455A64"/>
<path d="M16.5532 4.3442C16.5532 4.3442 16.6049 4.23837 16.7055 4.05023L17.1279 3.30943L17.1423 3.37116C16.2515 2.82144 14.8119 1.93954 13.1999 0.895957L13.3034 0.87244L13.2832 0.904776L13.2229 0.998846L13.1453 1.12819L12.9902 1.381L12.7028 1.87487L12.6712 1.76904C13.7717 2.48044 14.7343 3.11541 15.4297 3.57988L16.2515 4.1296C16.444 4.26189 16.5388 4.33538 16.5388 4.3442C16.4379 4.29943 16.3416 4.24427 16.2515 4.17958L15.4297 3.67689C14.7228 3.24182 13.7229 2.61861 12.5879 1.89839L12.5247 1.85723L12.5649 1.7955L12.8522 1.29869L13.0189 1.05764L13.0965 0.931233L13.1367 0.866561L13.1568 0.822465V0.804827L13.2775 0.763672C14.8924 1.7955 16.3176 2.7215 17.1911 3.30061L17.2285 3.32707L17.2055 3.36529C16.9986 3.68571 16.8348 3.93558 16.7256 4.1002C16.676 4.18708 16.6183 4.2688 16.5532 4.3442Z" fill="#263238"/>
<path d="M3.77119 2.44908L0.552246 6.19629L1.41991 6.9764L4.63886 3.2292L3.77119 2.44908Z" fill="#455A64"/>
<path d="M1.42149 6.97549C1.42149 6.97549 1.50769 6.85791 1.66286 6.66389L2.32662 5.85548C2.9013 5.17641 3.67713 4.23865 4.57939 3.18037V3.2862L3.71736 2.50719H3.82368L3.79494 2.52776L3.76333 2.57186L3.70299 2.64241L3.57943 2.78645L3.33519 3.08042L2.86395 3.61838L1.98181 4.63257L0.585321 6.22588V6.1612C0.835309 6.39932 1.03932 6.59627 1.20023 6.74914C1.27941 6.82086 1.35426 6.89743 1.42436 6.97843C1.33671 6.92443 1.25401 6.86244 1.17725 6.79323C1.02496 6.66683 0.797955 6.47869 0.513485 6.22882L0.479004 6.19942L0.507738 6.16414L1.86974 4.54438L2.73177 3.51843L3.226 2.96871C3.30359 2.87465 3.38691 2.78058 3.46737 2.67475L3.59093 2.5307L3.65127 2.45721L3.68288 2.42193L3.70012 2.4043H3.80644C4.09378 2.67475 4.38112 2.93638 4.66846 3.18625L4.72306 3.23623L4.67421 3.29208C3.76333 4.35624 2.94153 5.29106 2.35535 5.94955L1.6686 6.7168C1.59187 6.80849 1.50932 6.89491 1.42149 6.97549Z" fill="#263238"/>
<path d="M6.91284 10.8465L7.48465 9.73238L9.52766 10.679L11.7258 6.58398L12.7545 7.18662L9.90696 12.3516L6.91284 10.8465Z" fill="#455A64"/>
<path d="M9.90991 12.3605L6.9043 10.8495L7.47898 9.72947L9.51625 10.6702L11.723 6.5752L12.7575 7.18077L9.90991 12.3605ZM6.92441 10.8436L9.90703 12.3428L12.7489 7.18959L11.7317 6.60165L9.53061 10.6878L7.4991 9.74416L6.92441 10.8436Z" fill="#263238"/>
<path d="M5.84355 18.71C5.73494 18.6759 5.62999 18.6306 5.53035 18.5747C5.41021 18.5176 5.29318 18.4538 5.17979 18.3837C5.02541 18.2938 4.87579 18.1957 4.73153 18.0897C4.34991 17.8281 3.99129 17.533 3.65974 17.2078C3.25442 16.8102 2.88689 16.3741 2.56209 15.9055C2.248 15.4361 1.97676 14.9382 1.75179 14.418C1.56945 13.9884 1.4224 13.5439 1.31215 13.0893C1.26798 12.9149 1.2325 12.7383 1.20584 12.5602C1.17924 12.4272 1.16101 12.2927 1.15124 12.1574C1.13401 12.0427 1.12823 11.9265 1.134 11.8105C1.16273 11.8105 1.20871 12.2985 1.42134 13.0599C1.54302 13.5054 1.69768 13.9407 1.88396 14.3622C2.11684 14.875 2.39175 15.3667 2.70577 15.832C3.02213 16.2919 3.37586 16.7236 3.76319 17.1225C4.08755 17.4419 4.43423 17.7367 4.80049 18.0044C5.42115 18.4719 5.85792 18.6953 5.84355 18.71Z" fill="#263238"/>
<path d="M2.45326 17.1434C2.26958 16.9767 2.10823 16.786 1.9734 16.576C1.62379 16.0894 1.31887 15.5708 1.06252 15.0268C0.806512 14.4815 0.601582 13.9126 0.450481 13.3277C0.372345 13.0903 0.326891 12.843 0.31543 12.5928C0.407058 12.8229 0.484787 13.0585 0.548177 13.2983C0.726319 13.866 0.941347 14.4209 1.19183 14.9592C1.44632 15.4959 1.73426 16.0154 2.05385 16.5143C2.20152 16.714 2.335 16.9242 2.45326 17.1434Z" fill="#263238"/>
</svg>
