<svg width="34" height="34" viewBox="0 0 34 34" fill="none" xmlns="http://www.w3.org/2000/svg">
<path d="M33.011 13.9082H17V20.4842H26.149C25.9598 21.5243 25.5617 22.5153 24.9787 23.3972C24.3956 24.2791 23.6399 25.0336 22.757 25.6152V29.8802H28.251C29.9247 28.2682 31.2409 26.3224 32.1141 24.169C32.9874 22.0156 33.3982 19.7026 33.32 17.3802C33.3207 16.216 33.2173 15.054 33.011 13.9082V13.9082Z" fill="#4285F4"/>
<path d="M28.2511 29.8795L22.7571 25.6145C21.043 26.7176 19.038 27.2829 17.0001 27.2375C14.8807 27.2111 12.8229 26.5206 11.1165 25.2633C9.41016 24.0059 8.14112 22.245 7.48811 20.2285H1.80811V24.6285C3.22224 27.4456 5.39202 29.8139 8.07489 31.4686C10.7578 33.1234 13.848 33.9993 17.0001 33.9985C21.1385 34.1107 25.1634 32.6372 28.2511 29.8795Z" fill="#34A853"/>
<path d="M6.95521 17.0002C6.95761 15.9002 7.13759 14.8079 7.48821 13.7652V9.36523H1.80821C0.619186 11.7345 0 14.3488 0 16.9997C0 19.6507 0.619186 22.2649 1.80821 24.6342L7.48821 20.2342C7.1377 19.1919 6.95772 18.0999 6.95521 17.0002Z" fill="#FBBC05"/>
<path d="M23.4981 9.29919L28.3741 4.42319C25.2965 1.53471 21.2206 -0.0506794 17.0001 -0.00081138C13.8485 -0.00204733 10.7586 0.873139 8.07583 2.52694C5.39301 4.18075 3.22293 6.54801 1.80811 9.36419L7.48811 13.7642C8.14112 11.7477 9.41016 9.9868 11.1165 8.72945C12.8229 7.47209 14.8807 6.78159 17.0001 6.75519C19.4165 6.71522 21.7512 7.62927 23.4981 9.29919Z" fill="#EA4335"/>
</svg>
