<svg width="185" height="76" viewBox="0 0 185 76" fill="none" xmlns="http://www.w3.org/2000/svg">
<path d="M2.952 59.642V63.98H7.776V65.24H2.952V69.668H8.316V71H1.314V58.31H8.316V59.642H2.952ZM14.2535 69.254L17.3135 61.118H19.0775L15.2075 71H13.2635L9.39347 61.118H11.1575L14.2535 69.254ZM29.7751 65.51C29.7751 65.858 29.7511 66.158 29.7031 66.41H21.8011C21.8371 67.538 22.1551 68.384 22.7551 68.948C23.3671 69.512 24.1111 69.794 24.9871 69.794C25.7791 69.794 26.4391 69.596 26.9671 69.2C27.5071 68.792 27.8371 68.252 27.9571 67.58H29.7031C29.5831 68.264 29.3131 68.876 28.8931 69.416C28.4851 69.956 27.9511 70.376 27.2911 70.676C26.6311 70.976 25.8871 71.126 25.0591 71.126C24.1111 71.126 23.2711 70.922 22.5391 70.514C21.8071 70.106 21.2311 69.524 20.8111 68.768C20.4031 68 20.1991 67.1 20.1991 66.068C20.1991 65.036 20.4031 64.136 20.8111 63.368C21.2311 62.6 21.8071 62.012 22.5391 61.604C23.2711 61.196 24.1111 60.992 25.0591 60.992C26.0191 60.992 26.8531 61.196 27.5611 61.604C28.2811 62.012 28.8271 62.558 29.1991 63.242C29.5831 63.926 29.7751 64.682 29.7751 65.51ZM28.1191 65.618C28.1551 64.886 28.0351 64.274 27.7591 63.782C27.4831 63.29 27.1051 62.924 26.6251 62.684C26.1451 62.444 25.6231 62.324 25.0591 62.324C24.1591 62.324 23.4031 62.606 22.7911 63.17C22.1791 63.722 21.8491 64.538 21.8011 65.618H28.1191ZM33.5555 63.116C33.8795 62.432 34.3535 61.904 34.9775 61.532C35.6015 61.148 36.3455 60.956 37.2095 60.956V62.738H36.7055C35.7815 62.738 35.0255 62.978 34.4375 63.458C33.8495 63.926 33.5555 64.706 33.5555 65.798V71H31.9175V61.118H33.5555V63.116ZM39.5097 61.118L42.7137 68.894L45.6837 61.118H47.5017L41.6337 75.68H39.7797L41.8317 70.838L37.6737 61.118H39.5097ZM54.4575 60.992C55.3335 60.992 56.1135 61.196 56.7975 61.604C57.4815 62.012 58.0155 62.6 58.3995 63.368C58.7955 64.136 58.9935 65.036 58.9935 66.068C58.9935 67.1 58.7955 68 58.3995 68.768C58.0155 69.524 57.4815 70.106 56.7975 70.514C56.1135 70.922 55.3335 71.126 54.4575 71.126C53.4975 71.126 52.6815 70.886 52.0095 70.406C51.3495 69.914 50.8935 69.272 50.6415 68.48V71H49.0035V57.68H50.6415V63.638C50.8935 62.846 51.3495 62.21 52.0095 61.73C52.6815 61.238 53.4975 60.992 54.4575 60.992ZM53.9895 62.45C53.3535 62.45 52.7775 62.6 52.2615 62.9C51.7455 63.188 51.3435 63.608 51.0555 64.16C50.7675 64.712 50.6235 65.348 50.6235 66.068C50.6235 66.788 50.7675 67.424 51.0555 67.976C51.3435 68.516 51.7455 68.936 52.2615 69.236C52.7775 69.536 53.3535 69.686 53.9895 69.686C55.0095 69.686 55.8195 69.368 56.4195 68.732C57.0315 68.084 57.3375 67.196 57.3375 66.068C57.3375 64.94 57.0315 64.058 56.4195 63.422C55.8195 62.774 55.0095 62.45 53.9895 62.45ZM65.6144 60.992C66.5624 60.992 67.4084 61.196 68.1524 61.604C68.9084 62.012 69.4964 62.6 69.9164 63.368C70.3484 64.136 70.5644 65.036 70.5644 66.068C70.5644 67.1 70.3484 68 69.9164 68.768C69.4964 69.524 68.9084 70.106 68.1524 70.514C67.4084 70.922 66.5624 71.126 65.6144 71.126C64.6664 71.126 63.8144 70.922 63.0584 70.514C62.3144 70.106 61.7264 69.524 61.2944 68.768C60.8624 68 60.6464 67.1 60.6464 66.068C60.6464 65.036 60.8624 64.136 61.2944 63.368C61.7264 62.6 62.3144 62.012 63.0584 61.604C63.8144 61.196 64.6664 60.992 65.6144 60.992ZM65.6144 62.432C65.0264 62.432 64.4804 62.564 63.9764 62.828C63.4844 63.092 63.0824 63.5 62.7704 64.052C62.4704 64.592 62.3204 65.264 62.3204 66.068C62.3204 66.86 62.4704 67.532 62.7704 68.084C63.0824 68.624 63.4844 69.026 63.9764 69.29C64.4804 69.554 65.0264 69.686 65.6144 69.686C66.2024 69.686 66.7424 69.554 67.2344 69.29C67.7384 69.026 68.1404 68.624 68.4404 68.084C68.7524 67.532 68.9084 66.86 68.9084 66.068C68.9084 65.264 68.7524 64.592 68.4404 64.052C68.1404 63.5 67.7384 63.092 67.2344 62.828C66.7424 62.564 66.2024 62.432 65.6144 62.432ZM76.7488 60.992C77.7088 60.992 78.5188 61.232 79.1788 61.712C79.8508 62.192 80.3188 62.834 80.5828 63.638V57.68H82.2208V71H80.5828V68.48C80.3188 69.284 79.8508 69.926 79.1788 70.406C78.5188 70.886 77.7088 71.126 76.7488 71.126C75.8728 71.126 75.0928 70.922 74.4088 70.514C73.7248 70.106 73.1848 69.524 72.7888 68.768C72.4048 68 72.2128 67.1 72.2128 66.068C72.2128 65.036 72.4048 64.136 72.7888 63.368C73.1848 62.6 73.7248 62.012 74.4088 61.604C75.0928 61.196 75.8728 60.992 76.7488 60.992ZM77.2168 62.45C76.2088 62.45 75.3988 62.774 74.7868 63.422C74.1868 64.058 73.8868 64.94 73.8868 66.068C73.8868 67.196 74.1868 68.084 74.7868 68.732C75.3988 69.368 76.2088 69.686 77.2168 69.686C77.8648 69.686 78.4408 69.536 78.9448 69.236C79.4608 68.936 79.8628 68.516 80.1508 67.976C80.4388 67.424 80.5828 66.788 80.5828 66.068C80.5828 65.348 80.4388 64.712 80.1508 64.16C79.8628 63.608 79.4608 63.188 78.9448 62.9C78.4408 62.6 77.8648 62.45 77.2168 62.45ZM85.5117 61.118L88.7157 68.894L91.6857 61.118H93.5037L87.6357 75.68H85.7817L87.8337 70.838L83.6757 61.118H85.5117ZM105.069 58.184C106.617 58.184 107.895 58.568 108.903 59.336C109.911 60.092 110.607 61.13 110.991 62.45H109.263C108.939 61.61 108.417 60.944 107.697 60.452C106.977 59.948 106.095 59.696 105.051 59.696C104.223 59.696 103.479 59.9 102.819 60.308C102.171 60.704 101.655 61.28 101.271 62.036C100.899 62.78 100.713 63.656 100.713 64.664C100.713 65.66 100.899 66.53 101.271 67.274C101.655 68.018 102.171 68.594 102.819 69.002C103.479 69.398 104.223 69.596 105.051 69.596C106.095 69.596 106.977 69.35 107.697 68.858C108.417 68.354 108.939 67.682 109.263 66.842H110.991C110.607 68.162 109.911 69.206 108.903 69.974C107.895 70.73 106.617 71.108 105.069 71.108C103.881 71.108 102.831 70.838 101.919 70.298C101.007 69.746 100.293 68.984 99.7767 68.012C99.2727 67.028 99.0207 65.912 99.0207 64.664C99.0207 63.404 99.2727 62.282 99.7767 61.298C100.293 60.314 101.007 59.552 101.919 59.012C102.831 58.46 103.881 58.184 105.069 58.184ZM117.231 60.992C118.191 60.992 119.001 61.232 119.661 61.712C120.333 62.192 120.801 62.834 121.065 63.638V61.118H122.703V71H121.065V68.48C120.801 69.284 120.333 69.926 119.661 70.406C119.001 70.886 118.191 71.126 117.231 71.126C116.355 71.126 115.575 70.922 114.891 70.514C114.207 70.106 113.667 69.524 113.271 68.768C112.887 68 112.695 67.1 112.695 66.068C112.695 65.036 112.887 64.136 113.271 63.368C113.667 62.6 114.207 62.012 114.891 61.604C115.575 61.196 116.355 60.992 117.231 60.992ZM117.699 62.45C116.691 62.45 115.881 62.774 115.269 63.422C114.669 64.058 114.369 64.94 114.369 66.068C114.369 67.196 114.669 68.084 115.269 68.732C115.881 69.368 116.691 69.686 117.699 69.686C118.347 69.686 118.923 69.536 119.427 69.236C119.943 68.936 120.345 68.516 120.633 67.976C120.921 67.424 121.065 66.788 121.065 66.068C121.065 65.348 120.921 64.712 120.633 64.16C120.345 63.608 119.943 63.188 119.427 62.9C118.923 62.6 118.347 62.45 117.699 62.45ZM130.512 60.956C131.664 60.956 132.594 61.328 133.302 62.072C134.01 62.804 134.364 63.866 134.364 65.258V71H132.726V65.402C132.726 64.418 132.474 63.662 131.97 63.134C131.466 62.606 130.782 62.342 129.918 62.342C129.018 62.342 128.298 62.636 127.758 63.224C127.218 63.8 126.948 64.646 126.948 65.762V71H125.31V61.118H126.948V63.458C127.2 62.654 127.644 62.036 128.28 61.604C128.928 61.172 129.672 60.956 130.512 60.956ZM149.1 58.31V59.642H145.518V71H143.88V59.642H140.298V58.31H149.1ZM152.366 63.116C152.69 62.432 153.164 61.904 153.788 61.532C154.412 61.148 155.156 60.956 156.02 60.956V62.738H155.516C154.592 62.738 153.836 62.978 153.248 63.458C152.66 63.926 152.366 64.706 152.366 65.798V71H150.728V61.118H152.366V63.116ZM161.686 60.992C162.646 60.992 163.456 61.232 164.116 61.712C164.788 62.192 165.256 62.834 165.52 63.638V61.118H167.158V71H165.52V68.48C165.256 69.284 164.788 69.926 164.116 70.406C163.456 70.886 162.646 71.126 161.686 71.126C160.81 71.126 160.03 70.922 159.346 70.514C158.662 70.106 158.122 69.524 157.726 68.768C157.342 68 157.15 67.1 157.15 66.068C157.15 65.036 157.342 64.136 157.726 63.368C158.122 62.6 158.662 62.012 159.346 61.604C160.03 61.196 160.81 60.992 161.686 60.992ZM162.154 62.45C161.146 62.45 160.336 62.774 159.724 63.422C159.124 64.058 158.824 64.94 158.824 66.068C158.824 67.196 159.124 68.084 159.724 68.732C160.336 69.368 161.146 69.686 162.154 69.686C162.802 69.686 163.378 69.536 163.882 69.236C164.398 68.936 164.8 68.516 165.088 67.976C165.376 67.424 165.52 66.788 165.52 66.068C165.52 65.348 165.376 64.712 165.088 64.16C164.8 63.608 164.398 63.188 163.882 62.9C163.378 62.6 162.802 62.45 162.154 62.45ZM169.477 58.22C169.477 57.92 169.579 57.68 169.783 57.5C169.987 57.308 170.257 57.212 170.593 57.212C170.929 57.212 171.199 57.308 171.403 57.5C171.607 57.68 171.709 57.92 171.709 58.22C171.709 58.52 171.607 58.766 171.403 58.958C171.199 59.138 170.929 59.228 170.593 59.228C170.257 59.228 169.987 59.138 169.783 58.958C169.579 58.766 169.477 58.52 169.477 58.22ZM171.403 61.118V71H169.765V61.118H171.403ZM179.239 60.956C180.391 60.956 181.321 61.328 182.029 62.072C182.737 62.804 183.091 63.866 183.091 65.258V71H181.453V65.402C181.453 64.418 181.201 63.662 180.697 63.134C180.193 62.606 179.509 62.342 178.645 62.342C177.745 62.342 177.025 62.636 176.485 63.224C175.945 63.8 175.675 64.646 175.675 65.762V71H174.037V61.118H175.675V63.458C175.927 62.654 176.371 62.036 177.007 61.604C177.655 61.172 178.399 60.956 179.239 60.956Z" fill="#7B6F72"/>
<path d="M29.72 10.548V15.444H19.28V21.024H27.344V25.704H19.28V36H13.124V10.548H29.72ZM32.3058 10.26C32.3058 9.324 32.6418 8.556 33.3138 7.956C33.9858 7.332 34.8738 7.02 35.9778 7.02C37.0818 7.02 37.9698 7.332 38.6418 7.956C39.3138 8.556 39.6498 9.324 39.6498 10.26C39.6498 11.172 39.3138 11.94 38.6418 12.564C37.9698 13.164 37.0818 13.464 35.9778 13.464C34.8738 13.464 33.9858 13.164 33.3138 12.564C32.6418 11.94 32.3058 11.172 32.3058 10.26ZM39.0378 15.912V36H32.8818V15.912H39.0378ZM54.6641 30.708V36H51.8921C49.5401 36 47.7041 35.424 46.3841 34.272C45.0881 33.096 44.4401 31.164 44.4401 28.476V21.096H41.7401V15.912H44.4401V10.98H50.5961V15.912H54.6281V21.096H50.5961V28.584C50.5961 29.376 50.7521 29.928 51.0641 30.24C51.4001 30.552 51.9521 30.708 52.7201 30.708H54.6641ZM70.868 15.696C73.172 15.696 74.996 16.464 76.34 18C77.708 19.536 78.392 21.648 78.392 24.336V36H72.236V25.056C72.236 23.712 71.876 22.668 71.156 21.924C70.46 21.156 69.524 20.772 68.348 20.772C67.1 20.772 66.104 21.168 65.36 21.96C64.64 22.752 64.28 23.88 64.28 25.344V36H58.124V15.912H64.28V19.584C64.856 18.384 65.708 17.436 66.836 16.74C67.988 16.044 69.332 15.696 70.868 15.696ZM101.532 25.416C101.532 25.92 101.472 26.472 101.352 27.072H87.4201C87.4921 28.584 87.8761 29.676 88.5721 30.348C89.2681 30.996 90.1561 31.32 91.2361 31.32C92.1481 31.32 92.9041 31.092 93.5041 30.636C94.1041 30.18 94.5001 29.592 94.6921 28.872H101.208C100.944 30.288 100.368 31.56 99.4801 32.688C98.5921 33.792 97.4641 34.668 96.0961 35.316C94.7281 35.94 93.2041 36.252 91.5241 36.252C89.5561 36.252 87.8041 35.844 86.2681 35.028C84.7561 34.188 83.5681 32.988 82.7041 31.428C81.8401 29.868 81.4081 28.044 81.4081 25.956C81.4081 23.844 81.8281 22.02 82.6681 20.484C83.5321 18.924 84.7321 17.736 86.2681 16.92C87.8041 16.08 89.5561 15.66 91.5241 15.66C93.5161 15.66 95.2681 16.068 96.7801 16.884C98.2921 17.7 99.4561 18.852 100.272 20.34C101.112 21.804 101.532 23.496 101.532 25.416ZM95.3041 24.48C95.3281 23.16 94.9681 22.176 94.2241 21.528C93.5041 20.856 92.6041 20.52 91.5241 20.52C90.3961 20.52 89.4601 20.856 88.7161 21.528C87.9721 22.2 87.5521 23.184 87.4561 24.48H95.3041ZM112.049 15.66C114.593 15.66 116.621 16.296 118.133 17.568C119.669 18.84 120.629 20.52 121.013 22.608H115.253C115.085 21.792 114.701 21.156 114.101 20.7C113.525 20.22 112.793 19.98 111.905 19.98C111.209 19.98 110.681 20.136 110.321 20.448C109.961 20.736 109.781 21.156 109.781 21.708C109.781 22.332 110.105 22.8 110.753 23.112C111.425 23.424 112.469 23.736 113.885 24.048C115.421 24.408 116.681 24.78 117.665 25.164C118.649 25.524 119.501 26.124 120.221 26.964C120.941 27.804 121.301 28.932 121.301 30.348C121.301 31.5 120.989 32.52 120.365 33.408C119.741 34.296 118.841 34.992 117.665 35.496C116.489 36 115.097 36.252 113.489 36.252C110.777 36.252 108.605 35.652 106.973 34.452C105.341 33.252 104.345 31.536 103.985 29.304H109.925C110.021 30.168 110.381 30.828 111.005 31.284C111.653 31.74 112.481 31.968 113.489 31.968C114.185 31.968 114.713 31.812 115.073 31.5C115.433 31.164 115.613 30.732 115.613 30.204C115.613 29.508 115.277 29.016 114.605 28.728C113.957 28.416 112.889 28.092 111.401 27.756C109.913 27.444 108.689 27.108 107.729 26.748C106.769 26.388 105.941 25.812 105.245 25.02C104.549 24.204 104.201 23.1 104.201 21.708C104.201 19.908 104.885 18.456 106.253 17.352C107.621 16.224 109.553 15.66 112.049 15.66ZM136.086 30.708V36H133.314C130.962 36 129.126 35.424 127.806 34.272C126.51 33.096 125.862 31.164 125.862 28.476V21.096H123.162V15.912H125.862V10.98H132.018V15.912H136.05V21.096H132.018V28.584C132.018 29.376 132.174 29.928 132.486 30.24C132.822 30.552 133.374 30.708 134.142 30.708H136.086Z" fill="#1D1617"/>
<path d="M161.822 36L154.372 25L147.972 36H138.172L149.472 17.8L137.822 0.649999H147.972L155.222 11.3L161.472 0.649999H171.222L160.072 18.45L171.972 36H161.822Z" fill="url(#paint0_linear_675_3428)"/>
<defs>
<linearGradient id="paint0_linear_675_3428" x1="308" y1="68.4074" x2="-43.2744" y2="-55.1187" gradientUnits="userSpaceOnUse">
<stop stop-color="#CC8FED"/>
<stop offset="1" stop-color="#9DCEFF"/>
</linearGradient>
</defs>
</svg>
