<svg width="20" height="20" viewBox="0 0 20 20" fill="none" xmlns="http://www.w3.org/2000/svg">
<path fill-rule="evenodd" clip-rule="evenodd" d="M17.3389 6.35299L16.8202 5.45292C16.3814 4.69131 15.409 4.42858 14.6463 4.86558V4.86558C14.2833 5.07943 13.8501 5.14011 13.4423 5.03422C13.0345 4.92833 12.6855 4.66458 12.4724 4.30112C12.3353 4.0701 12.2616 3.80698 12.2588 3.53835V3.53835C12.2712 3.10766 12.1087 2.69031 11.8084 2.38137C11.5081 2.07243 11.0955 1.8982 10.6646 1.89838H9.61962C9.19751 1.89837 8.7928 2.06657 8.49504 2.36577C8.19728 2.66496 8.03102 3.07047 8.03305 3.49258V3.49258C8.02054 4.36408 7.31044 5.06399 6.43885 5.0639C6.17022 5.06111 5.90709 4.98743 5.67607 4.85032V4.85032C4.91343 4.41332 3.94097 4.67606 3.50216 5.43766L2.94533 6.35299C2.50705 7.11364 2.76621 8.08549 3.52504 8.5269V8.5269C4.01829 8.81168 4.32215 9.33797 4.32215 9.90753C4.32215 10.4771 4.01829 11.0034 3.52504 11.2882V11.2882C2.76717 11.7266 2.50773 12.6961 2.94533 13.4544V13.4544L3.47165 14.3621C3.67725 14.7331 4.02221 15.0069 4.4302 15.1228C4.83819 15.2388 5.27557 15.1874 5.64556 14.98V14.98C6.00927 14.7678 6.4427 14.7096 6.84949 14.8185C7.25628 14.9273 7.60274 15.1942 7.81184 15.5597C7.94896 15.7907 8.02263 16.0539 8.02542 16.3225V16.3225C8.02542 17.2029 8.73917 17.9167 9.61962 17.9167H10.6646C11.5421 17.9167 12.2546 17.2076 12.2588 16.3301V16.3301C12.2568 15.9067 12.4241 15.5 12.7235 15.2006C13.0229 14.9012 13.4296 14.7339 13.853 14.7359C14.121 14.7431 14.3831 14.8165 14.6158 14.9495V14.9495C15.3765 15.3878 16.3483 15.1286 16.7897 14.3698V14.3698L17.3389 13.4544C17.5515 13.0896 17.6098 12.655 17.501 12.247C17.3922 11.8389 17.1252 11.4911 16.7592 11.2805V11.2805C16.3932 11.0699 16.1262 10.7221 16.0174 10.3141C15.9086 9.90607 15.9669 9.4715 16.1795 9.10662C16.3177 8.86526 16.5179 8.66514 16.7592 8.5269V8.5269C17.5135 8.08572 17.772 7.11956 17.3389 6.36062V6.36062V6.35299Z" stroke="url(#paint0_linear_430_213)" stroke-width="1.2" stroke-linecap="round" stroke-linejoin="round"/>
<circle cx="10.146" cy="9.90755" r="2.1968" stroke="url(#paint1_linear_430_213)" stroke-width="1.2" stroke-linecap="round" stroke-linejoin="round"/>
<defs>
<linearGradient id="paint0_linear_430_213" x1="17.5546" y1="17.9167" x2="-2.21755" y2="16.5009" gradientUnits="userSpaceOnUse">
<stop stop-color="#92A3FD"/>
<stop offset="1" stop-color="#9DCEFF"/>
</linearGradient>
<linearGradient id="paint1_linear_430_213" x1="12.3428" y1="12.1043" x2="6.487" y2="11.6512" gradientUnits="userSpaceOnUse">
<stop stop-color="#92A3FD"/>
<stop offset="1" stop-color="#9DCEFF"/>
</linearGradient>
</defs>
</svg>
