<svg width="349" height="263" viewBox="0 0 349 263" fill="none" xmlns="http://www.w3.org/2000/svg">
<path fill-rule="evenodd" clip-rule="evenodd" d="M172.418 257.733C154.057 254.451 138.191 243.255 119.64 241.323C90.4308 238.283 47.6928 268.531 32.667 243.185C16.2989 215.575 75.2261 186.471 68.4976 155.055C61.9011 124.254 4.28444 122.988 0.233628 91.7469C-3.11913 65.8894 30.3622 48.3126 53.0038 35.561C73.2949 24.1331 97.6536 24.2599 120.911 23.7817C138.574 23.4186 155.117 36.7014 172.418 33.1057C195.893 28.2267 211.354 -0.293292 235.324 0.00226824C258.009 0.28199 292.755 11.8041 293.04 34.593C293.461 68.1735 224.678 85.1647 236.784 116.469C251.667 154.956 325.169 135.256 345.781 170.977C359.031 193.939 328.4 223.001 307.953 239.808C288.064 256.155 260.567 258.591 235.089 261.961C214.067 264.742 193.293 261.465 172.418 257.733Z" fill="url(#paint0_linear_255_4419)"/>
<defs>
<linearGradient id="paint0_linear_255_4419" x1="1.71951e-05" y1="7.68025e-06" x2="463.048" y2="47.5476" gradientUnits="userSpaceOnUse">
<stop stop-color="#92A3FD"/>
<stop offset="1" stop-color="#9DCEFF"/>
</linearGradient>
</defs>
</svg>
