<svg width="235" height="260" viewBox="0 0 235 260" fill="none" xmlns="http://www.w3.org/2000/svg">
<path d="M155.231 8.34778C155.231 8.34778 173.702 12.8013 181.015 21.396C188.328 29.9908 185.814 52.1432 183.907 64.8956C182.001 77.6481 176.89 86.8673 182.938 91.3208C188.985 95.7743 191.154 91.6494 191.154 91.6494C191.154 91.6494 182.938 105.651 174.277 107.574C165.617 109.496 153.571 98.6501 151.665 89.1022C149.758 79.5544 148.477 65.2079 150.021 55.3313C151.566 45.4547 154.59 42.1023 156.118 35.4138C157.646 28.7254 156.43 17.5834 156.43 17.5834L155.231 8.34778Z" fill="#3B2645"/>
<path d="M128.478 249.938C165.417 249.938 195.362 224.841 195.362 193.883C195.362 162.924 165.417 137.828 128.478 137.828C91.5385 137.828 61.5933 162.924 61.5933 193.883C61.5933 224.841 91.5385 249.938 128.478 249.938Z" fill="#AB8DA8"/>
<path d="M71.7493 62.0695L70.2867 61.0999L63.4668 50.8782L68.9227 39.8677L81.1822 39.0625L82.6448 40.0485L71.7493 62.0695Z" fill="#393762"/>
<path d="M84.0081 61.2804L71.7486 62.0692L64.9287 51.8475L70.3682 40.837L82.6441 40.0482L89.4476 50.2699L84.0081 61.2804Z" fill="#636183"/>
<path d="M113.523 57.4187C110.458 60.8001 107.84 64.5613 105.734 68.6099C101.593 76.1694 91.1245 86.6869 89.1854 88.8232C88.272 89.972 87.101 90.8896 85.7672 91.5019C83.9208 86.0959 82.46 80.5659 81.3959 74.9533C80.4263 68.3799 78.9637 55.4631 78.9637 55.4631L82.8584 47.6736C82.8584 47.6736 79.6868 41.3303 78.4707 40.8701C77.2546 40.41 74.8224 41.1002 71.1742 44.2719C67.5259 47.4435 66.0469 50.5988 67.756 54.4771C69.4651 58.3554 73.1133 62.2666 72.6861 68.5935C72.2588 74.9204 72.456 97.0893 74.6417 104.386C76.8273 111.682 76.5973 111.699 79.5717 111.699C82.5462 111.699 91.0752 108.034 100.032 103.482C105.277 100.862 109.73 96.891 112.932 91.9785L113.523 57.4187Z" fill="#FFEDE5"/>
<path d="M132.027 53.5344C127.941 52.8397 123.76 52.9177 119.702 53.7644C113.655 55.227 110.516 59.0889 109.3 66.106C108.084 73.1232 103.745 81.8329 106.654 88.4064C109.563 94.9798 112.208 100.025 112.455 105.333C112.573 110.399 112.337 115.468 111.748 120.501C111.268 121.507 110.719 122.479 110.105 123.41C110.105 123.41 109.612 127.272 97.5169 123.886C85.4218 120.501 69.9578 121.471 54.0008 125.102C38.0438 128.734 29.5806 131.676 28.8575 136.951C28.1344 142.226 28.1344 175.143 29.5806 184.822C30.3939 191.339 30.2333 197.941 29.104 204.411C25.0962 207.2 20.7985 209.547 16.2858 211.411C9.5152 214.074 5.65331 215.52 6.85296 217.985C8.05261 220.45 12.654 220.894 18.455 220.894C24.2561 220.894 32.2428 220.417 32.2428 220.417C32.2428 220.417 24.9956 225.002 20.1477 228.141C15.2998 231.28 10.7313 232.019 12.9005 235.404C15.0697 238.79 35.9075 237.82 40.9526 237.82C45.9977 237.82 51.8316 235.881 52.3082 233.712C52.7847 231.543 50.862 224.032 50.862 221.14C50.862 218.248 50.1389 205.413 53.0312 199.612C55.9235 193.811 60.2949 176.885 60.0484 170.36C59.8019 163.836 59.3253 159.728 59.3253 159.728C59.3253 159.728 87.098 163.541 97.9441 167.402C108.79 171.264 132.997 174.42 144.369 168.865C155.741 163.31 160.326 156.523 158.633 146.86C156.941 137.198 152.339 130.904 153.555 119.532C154.771 108.159 154.755 97.0504 157.664 91.4959C160.572 85.9413 167.096 76.0155 166.603 69.4913C166.11 62.9672 154.032 56.3445 147.984 54.0109C141.937 51.6774 132.027 53.5344 132.027 53.5344Z" fill="#FFEDE5"/>
<path d="M28.7918 137.532C28.0687 142.84 28.0687 175.724 29.5149 185.403C30.3282 191.92 30.1676 198.522 29.0383 204.992C25.0305 207.781 20.7328 210.128 16.2201 211.993C9.44952 214.655 5.58764 216.101 6.78729 218.566C7.98694 221.031 12.5883 221.475 18.3894 221.475C23.3194 221.475 29.7778 221.13 31.6348 221.015C32.8016 220.637 35.0859 219.832 35.0859 219.372C35.0859 218.911 37.0086 201.295 37.2551 184.302C37.5016 167.31 39.4408 147.688 39.4408 147.688L37.2715 138.979C35.2813 137.109 33.1374 135.411 30.8624 133.901C29.7567 134.822 29.0213 136.112 28.7918 137.532Z" fill="#FFEDE5"/>
<path d="M34.5928 212.962C34.5928 212.962 33.8698 211.319 32.6537 208.131C32.4395 207.303 31.9793 206.56 31.3337 206C30.6882 205.439 29.8878 205.088 29.0383 204.992C25.0305 207.781 20.7328 210.128 16.2201 211.993C9.44952 214.655 5.58764 216.101 6.78729 218.566C7.98694 221.031 12.5883 221.475 18.3894 221.475C23.3194 221.475 29.7778 221.13 31.6348 221.015C32.8016 220.637 35.0859 219.832 35.0859 219.372C35.0859 219.109 35.3159 216.742 35.6446 213.077L34.5928 212.962Z" fill="#3B2645"/>
<path d="M127.919 131.961C121.692 128.683 116.27 124.064 112.044 118.436C111.913 119.866 111.798 120.868 111.732 121.082C111.251 122.088 110.702 123.06 110.089 123.991C110.089 123.991 109.596 127.853 97.5007 124.467C85.4056 121.082 69.9416 122.052 53.9846 125.683C38.0276 129.315 29.5644 132.257 28.8413 137.532C28.8413 137.779 28.8413 138.091 28.7427 138.452C29.6736 139.81 30.6775 141.115 31.75 142.364C33.8555 144.723 36.4915 146.548 39.4409 147.688C40.1804 151.073 44.7654 161.706 51.536 161.706C58.3066 161.706 59.2762 160.26 59.2762 160.26C59.2762 160.26 87.0982 164.122 97.9444 167.983C108.791 171.845 132.997 175.001 144.369 169.446C155.741 163.891 160.326 157.104 158.633 147.441C157.882 143.729 156.877 140.072 155.626 136.497C148.264 136.891 136.399 136.645 127.919 131.961Z" fill="#3B2645"/>
<path d="M111.748 121.082C111.267 122.088 110.718 123.06 110.105 123.991C110.105 123.991 109.612 127.853 97.5167 124.468C85.4216 121.082 69.9576 122.052 54.0006 125.684C38.0437 129.316 29.5804 132.257 28.8573 137.532C28.7094 138.601 28.5944 140.819 28.5122 143.662C31.6916 146.028 35.4862 147.426 39.4405 147.688C41.1703 144.701 43.6666 142.231 46.6714 140.532C49.6761 138.833 53.0802 137.968 56.5314 138.025C68.758 138.025 120.441 138.979 120.441 138.979L127.344 123.252C127.344 123.252 119.127 117.451 112.373 113.671C112.159 117.385 111.863 120.672 111.748 121.082Z" fill="#3B2645"/>
<path d="M153.653 122.348C154.278 119.669 166.603 105.503 167.836 100.573C169.068 95.6431 173.587 80.6393 169.479 72.0117C165.37 63.3841 160.227 61.3299 160.227 61.3299C156.452 58.5553 152.344 56.2642 148 54.51C141.969 52.0942 132.043 54.0334 132.043 54.0334C127.957 53.3387 123.776 53.4168 119.718 54.2635C113.671 55.726 110.532 59.5879 109.316 66.6051C108.1 73.6222 103.745 82.4141 106.653 88.9876C109.562 95.561 112.208 100.606 112.454 105.914C112.573 110.98 112.337 116.049 111.748 121.082C111.267 122.088 110.718 123.06 110.104 123.991V124.09C111.896 127.787 116.004 135.593 120.523 138.978C124.766 139.109 128.845 140.64 132.125 143.333C137.055 147.688 143.021 148.641 149.545 148.641C152.641 148.518 155.705 147.965 158.649 146.998C157.006 138.387 153.21 132.389 153.473 122.89C153.569 122.723 153.63 122.539 153.653 122.348Z" fill="#AB8DA8"/>
<path d="M151.024 39.5061C151.024 39.5061 157.088 30.1883 158.058 22.218C159.027 14.2478 157.581 6.8198 148.872 2.15267C140.162 -2.51446 127.344 2.15267 123.482 6.8198C119.62 11.4869 120.096 20.361 119.127 22.3002C118.157 24.2394 113.802 27.3782 114.295 28.5943C114.788 29.8103 117.927 31.4701 117.927 31.4701L119.571 38.9638C120.047 41.1495 121.493 44.0418 123.186 44.0418C125.487 43.8019 127.77 43.4177 130.022 42.8914C130.022 42.8914 130.499 50.4509 129.069 53.4911C127.146 57.5995 117.237 82.2169 121.592 84.7148C125.947 87.2127 144.369 67.8869 149.677 63.7785C154.985 59.6701 148.033 54.5921 148.033 54.5921C148.033 54.5921 145.651 54.4935 146.62 48.446C147.046 45.0569 148.597 41.9088 151.024 39.5061Z" fill="#FFEDE5"/>
<path d="M40.8867 238.352C45.9647 238.352 51.7657 236.413 52.2423 234.244C52.6367 232.502 51.4863 227.391 50.9933 223.907C49.9925 224.266 48.9477 224.487 47.8874 224.565C45.2925 224.654 42.6969 224.411 40.1636 223.841C40.1063 222.84 39.861 221.859 39.4406 220.949C38.7175 219.306 35.1021 219.306 35.1021 219.306L31.1087 221.048H32.1934C32.1934 221.048 24.9462 225.633 20.0983 228.772C15.2504 231.91 10.6818 232.65 12.8511 236.035C15.0203 239.42 35.8087 238.352 40.8867 238.352Z" fill="#3B2645"/>
<path d="M161.181 23.8942C162.134 15.9239 157.582 6.81973 148.872 2.1526C141.592 -1.69285 131.469 0.903654 126.046 4.53547C127.13 4.73179 128.105 5.31593 128.79 6.17882C132.29 10.0078 130.433 17.0085 133.572 20.1966C136.711 23.3848 138.338 22.4316 138.338 22.4316C138.338 22.4316 141.855 16.6963 143.432 22.4316C145.01 28.1669 142.808 30.6484 141.214 31.3386C140.08 31.7655 138.908 32.0847 137.713 32.2917C137.713 32.2917 146.259 39.8347 151.025 39.5718C151.025 39.5061 160.211 31.8809 161.181 23.8942Z" fill="#3B2645"/>
<path d="M75.9399 65.5203L74.4938 64.5343L67.6738 54.3126L73.1133 43.3021L85.3728 42.5133L86.8353 43.4829L75.9399 65.5203Z" fill="#393762"/>
<path d="M88.2151 64.7151L75.9392 65.5203L69.1357 55.2822L74.5752 44.2717L86.8347 43.4829L93.6546 53.7046L88.2151 64.7151Z" fill="#636183"/>
<path d="M173.521 157.104C171.814 153.084 170.824 148.796 170.596 144.434C170.596 139.981 165.485 128.494 165.485 125.946C166.177 115.94 167.406 105.978 169.166 96.1032C171.96 86.7032 171.73 76.5308 169.478 72.0116C167.227 67.4924 158.172 68.314 155.707 75.7091C153.242 83.1042 153.39 97.4507 153.39 97.4507C152.568 103.893 152.01 118.256 151.747 126.883C151.566 134.558 153.193 142.298 156.874 147.82C162.083 155.642 164.548 165.896 166.142 165.896C167.737 165.896 176.183 164.845 176.183 164.845C176.183 164.845 176.627 163.974 173.521 157.104Z" fill="#FFEDE5"/>
<path d="M178.075 173.226C178.075 173.226 179.718 164.319 179.356 162.396C178.995 160.474 173.621 161.772 171.386 161.772C169.151 161.772 167.574 161.443 167.886 162.725C168.198 164.007 172.668 164.368 172.668 164.368L174.311 164.993L178.075 173.226Z" fill="#FFEDE5"/>
<path d="M189.002 166.915H156.2V171.369H189.002V166.915Z" fill="#636183"/>
<path d="M201.097 157.055H186.767V180.621H201.097V157.055Z" fill="#636183"/>
<path d="M156.825 157.055H142.495V180.621H156.825V157.055Z" fill="#636183"/>
<path d="M162.248 163.415L164.039 172.157C164.157 172.741 164.48 173.264 164.951 173.629C165.422 173.994 166.008 174.177 166.603 174.146C168.838 174.014 172.305 173.817 174.343 173.604C177.531 173.291 178.484 174.244 178.813 171.96C178.961 170.81 179.207 168.674 179.421 166.866C179.464 166.47 179.421 166.07 179.295 165.692C179.17 165.314 178.964 164.968 178.693 164.676C178.422 164.385 178.091 164.155 177.723 164.003C177.356 163.85 176.96 163.779 176.562 163.793C174.08 163.793 170.958 163.99 170.202 163.99C168.936 164.056 164.795 160.555 162.248 163.415Z" fill="#FFEDE5"/>
</svg>
