<svg width="125" height="291" viewBox="0 0 125 291" fill="none" xmlns="http://www.w3.org/2000/svg">
<path d="M76.852 29.614L79.1816 42.4868C79.4866 44.1792 80.6514 45.5941 82.2599 46.2322L87.4183 48.2574C87.4183 48.2574 81.9826 56.3862 71.0835 58.6889C60.1844 60.9638 54.2218 51.0872 54.2218 51.0872L58.8255 47.6471C59.8516 46.8703 60.4063 45.6496 60.3231 44.3734L59.4911 32.4161L76.852 29.614Z" fill="#FFEDE5"/>
<path d="M60.1288 41.3771C60.1288 41.3771 73.1911 49.0897 76.8518 29.614L59.5187 32.3883L60.1288 41.3771Z" fill="#DF845C"/>
<path d="M80.6058 25.5266C81.0981 23.4387 80.5304 21.5181 79.3378 21.2366C78.1452 20.9552 76.7793 22.4196 76.287 24.5074C75.7946 26.5952 76.3623 28.5159 77.5549 28.7973C78.7475 29.0787 80.1134 27.6144 80.6058 25.5266Z" fill="#FFEDE5"/>
<path d="M57.7189 31.1973C58.78 30.5844 58.7711 28.5816 57.6989 26.724C56.6268 24.8663 54.8974 23.8572 53.8363 24.4701C52.7751 25.083 52.7841 27.0858 53.8562 28.9434C54.9284 30.8011 56.6578 31.8102 57.7189 31.1973Z" fill="#DF845C"/>
<path d="M77.7394 26.1739C77.6839 26.1739 77.6562 26.1739 77.6007 26.1462C77.462 26.063 77.4066 25.8965 77.4898 25.7855L78.4604 23.899C78.5436 23.7603 78.71 23.7048 78.821 23.788C78.9596 23.8712 79.0151 24.0377 78.9319 24.1487L77.9612 26.0352C77.9335 26.1184 77.8503 26.1739 77.7394 26.1739Z" fill="#472938"/>
<path d="M56.8565 28.7818C56.801 28.7818 56.7178 28.754 56.6623 28.6985L54.7765 26.9507C54.6656 26.8397 54.6656 26.6733 54.7488 26.5623C54.8597 26.4513 55.0261 26.4513 55.137 26.5345L57.0229 28.2824C57.1338 28.3933 57.1338 28.5598 57.0506 28.6708C56.9951 28.754 56.9119 28.7818 56.8565 28.7818Z" fill="#472938"/>
<path d="M52.7519 16.7411C52.7519 16.7411 57.3002 33.6644 59.0196 36.1058C60.7113 38.5195 65.9529 40.7667 66.8403 40.9054C67.7278 41.0441 71.2499 40.6835 72.0541 39.9899C72.8584 39.2963 77.1848 34.7187 77.8504 31.7502C78.4882 28.7816 78.6546 13.1068 75.909 10.2492C73.1357 7.39166 51.3653 9.72209 52.7519 16.7411Z" fill="#FFEDE5"/>
<path d="M67.0066 28.7817C66.3133 28.7817 65.0931 28.421 64.9267 28.3378C64.7048 28.2268 64.6771 28.2268 64.7603 23.344C64.7603 23.0111 64.7603 22.7614 64.7603 22.6782C64.7325 22.4563 64.0669 21.3188 63.4845 20.3755C63.4013 20.2368 63.4291 20.0704 63.5677 19.9871C63.7064 19.9039 63.8728 19.9316 63.956 20.0704C64.4552 20.8749 65.3427 22.2621 65.3427 22.6505C65.3427 22.7337 65.3427 22.9834 65.3427 23.3163C65.3149 24.3151 65.2872 27.1726 65.3149 27.8384C65.6477 27.9494 66.5906 28.1991 67.0621 28.1714C67.4504 28.1436 68.0605 27.672 68.3378 27.3946C68.4488 27.2836 68.6152 27.2836 68.7261 27.3946C68.837 27.5055 68.837 27.672 68.7261 27.783C68.6429 27.8662 67.7832 28.6985 67.0898 28.7262C67.0621 28.7817 67.0344 28.7817 67.0066 28.7817Z" fill="#472938"/>
<path d="M63.5677 31.7223L71.2775 30.6681C71.2775 30.6681 70.6951 34.2192 67.9496 34.8296C65.204 35.4399 63.5677 31.7223 63.5677 31.7223Z" fill="white"/>
<path d="M71.2221 21.846C70.7506 21.9015 70.3346 21.5686 70.2792 21.0969L70.2237 20.4588C70.1682 19.9872 70.501 19.571 70.9725 19.5156C71.4439 19.4601 71.8599 19.793 71.9154 20.2646L71.9709 20.9027C72.0541 21.3744 71.6935 21.7905 71.2221 21.846Z" fill="#472938"/>
<path d="M60.4339 23.7878C59.9624 23.871 59.5187 23.5659 59.4355 23.0942L59.3246 22.4561C59.2414 21.9845 59.5464 21.5406 60.0179 21.4574C60.4894 21.3742 60.9331 21.6793 61.0163 22.151L61.1272 22.7891C61.2104 23.2607 60.9054 23.7046 60.4339 23.7878Z" fill="#472938"/>
<path d="M68.3379 17.9341C68.3379 17.9341 72.3314 16.5192 74.4669 17.7677C74.4669 17.7677 74.1063 16.0199 71.9154 16.1031C69.7245 16.1863 68.3102 16.4915 68.0883 17.0186C67.8664 17.5457 68.3379 17.9341 68.3379 17.9341Z" fill="#472938"/>
<path d="M62.403 19.0162C62.403 19.0162 58.1876 18.6278 56.4404 20.3756C56.4404 20.3756 56.3572 18.5723 58.4926 18.1284C60.6281 17.6845 62.0702 17.6291 62.403 18.073C62.7635 18.5446 62.403 19.0162 62.403 19.0162Z" fill="#472938"/>
<path d="M55.442 26.146L54.6378 19.1547C54.6378 19.1547 61.2659 19.8483 66.2579 14.799C71.2498 9.74974 74.7165 12.5795 74.7165 12.5795L78.1831 22.04L79.0151 21.1799C79.0151 21.1799 79.2092 12.3576 79.0151 12.0524C78.821 11.7473 77.3511 10.8317 77.3511 10.8317C77.3511 10.8317 76.8797 2.23134 66.2024 0.539006C55.5252 -1.15333 52.6964 10.0272 49.5903 10.4711L50.8383 12.0524C50.8383 12.0524 50.4223 13.3286 50.4501 14.91C50.4778 16.4913 53.8612 24.4814 53.8612 24.4814L55.442 26.146Z" fill="#3B2645"/>
<path d="M40.6325 55.6924C40.6325 55.6924 34.3371 57.4957 34.6144 70.6182C34.6144 70.6182 28.3745 79.9954 27.6812 91.2037C27.6812 91.2037 12.428 77.1934 11.901 75.4733C11.3464 73.7255 11.6515 67.5942 11.2909 66.0961C10.9304 64.598 9.59921 63.0166 9.7656 60.9081C9.932 58.7996 10.2925 55.8311 10.0984 55.5259C9.90427 55.2208 6.9923 55.5537 6.4931 57.9674C5.99391 60.381 5.85524 63.1276 5.85524 63.1276C5.85524 63.1276 1.16835 64.2928 0.585958 65.1528C0.00356388 66.0129 0.336362 68.2878 0.336362 68.2878C0.336362 68.2878 0.447294 75.9449 1.22382 76.805C2.00035 77.665 5.71658 79.5515 6.4931 80.0787C7.26963 80.6058 16.0333 100.775 19.8327 105.353C23.6321 109.93 27.1542 111.207 30.4545 110.125C33.7547 109.043 42.8789 96.7246 45.8186 91.0095C48.7583 85.2944 47.6767 56.3582 40.6325 55.6924Z" fill="#FFEDE5"/>
<path d="M47.2051 74.7521C43.8494 73.9198 41.6585 74.4192 41.6585 74.4192C41.6585 74.4192 46.1236 90.5657 39.218 101.053C41.9359 97.4461 44.4873 93.562 45.7908 91.0374C47.0387 88.5682 47.5657 81.7434 47.2051 74.7521Z" fill="#DF845C"/>
<path d="M27.6533 91.2038L30.2602 93.1181L27.7643 90.0109L27.6533 91.2038Z" fill="#DF845C"/>
<path d="M2.52721 65.0142C2.52721 65.0142 7.26956 65.3748 7.51916 65.6522C7.76876 65.9297 8.15702 75.723 7.26956 76.3889C6.35437 77.0824 1.80615 76.9715 1.80615 76.9715C1.80615 76.9715 7.24183 77.4708 7.82423 77.2212C8.40662 76.9715 9.46047 73.5313 9.65461 71.7557C9.84874 69.9802 8.73941 65.2916 8.32342 65.1806C7.90742 65.0696 2.52721 65.0142 2.52721 65.0142Z" fill="#DF845C"/>
<path d="M100.896 261.547C101.091 255.444 101.728 246.483 101.618 238.187C101.451 226.258 100.259 212.83 99.6762 208.918C99.0661 205.006 100.48 186.89 100.48 186.89L75.4098 190.386C76.0199 192.328 80.5681 209.362 80.7623 216.797C80.9841 224.232 90.1083 258.856 90.4688 261.63C90.5243 261.991 90.552 262.379 90.6075 262.768C92.9093 263.045 97.3189 263.267 100.896 261.547Z" fill="#FFEDE5"/>
<path d="M93.1312 270.397C93.1312 270.397 92.8539 267.429 96.1818 266.707C99.5098 265.986 101.035 267.65 101.035 267.65C100.841 266.347 100.841 264.21 100.924 261.547C97.3466 263.267 92.9371 263.045 90.663 262.768C90.8848 264.932 90.9403 267.512 90.7184 269.62C91.079 270.564 93.1312 270.397 93.1312 270.397Z" fill="white"/>
<path d="M89.6368 283.048C93.1866 284.907 92.1605 289.068 96.5978 290.095C100.286 290.955 105.888 290.455 108.079 290.206C108.662 290.15 109.133 289.679 109.244 289.096C109.3 288.68 109.355 288.125 109.327 287.542C106.554 287.792 100.037 288.291 97.4298 287.653C94.1018 286.849 93.2976 283.436 91.6336 282.493C90.3856 281.799 89.5813 280.884 89.2485 280.468C89.1931 281.05 89.1099 281.55 89.0821 281.91C88.9712 282.41 89.2208 282.854 89.6368 283.048Z" fill="#3B2645"/>
<path d="M108.079 283.825C107.414 282.881 106.443 280.856 105.445 278.554C104.862 280.634 98.2063 279.663 97.3466 279.441C96.4869 279.219 93.1589 270.397 93.1589 270.397C93.1589 270.397 91.1067 270.536 90.7184 269.593C90.6629 270.064 90.6075 270.536 90.5243 270.952C90.1915 272.728 89.5813 277.583 89.2485 280.468C89.5813 280.884 90.3856 281.772 91.6336 282.493C93.3253 283.436 94.1018 286.849 97.4298 287.653C100.037 288.291 106.554 287.792 109.327 287.542C109.244 286.433 108.967 285.101 108.079 283.825Z" fill="#AB8DA8"/>
<path d="M97.3189 279.441C98.1786 279.663 104.835 280.634 105.417 278.554C103.309 273.726 101.007 267.65 101.007 267.65C101.007 267.65 99.482 265.986 96.1541 266.707C92.8261 267.428 93.1034 270.397 93.1034 270.397C93.1034 270.397 96.4591 279.247 97.3189 279.441Z" fill="#3B2645"/>
<path d="M91.8377 209.789C94.4711 209.379 96.5238 208.519 96.4227 207.868C96.3215 207.217 94.1047 207.022 91.4714 207.431C88.838 207.841 86.7853 208.7 86.8864 209.351C86.9876 210.002 89.2043 210.198 91.8377 209.789Z" fill="#E0855C"/>
<path d="M29.8444 262.018C29.8721 255.887 30.2049 246.982 30.5932 238.686C31.2865 223.955 34.5035 210.999 34.5035 209.417C34.5035 203.147 35.2246 183.7 35.6128 184.171L58.8254 189.803C58.1598 191.717 51.8089 207.808 51.3375 215.244C50.866 222.679 40.7157 259.716 40.2443 262.462C40.1888 262.823 40.1333 263.184 40.0779 263.6C37.776 263.766 33.3665 263.85 29.8444 262.018Z" fill="#FFEDE5"/>
<path d="M37.3046 271.118C37.3046 271.118 37.6929 268.15 34.3926 267.318C31.0924 266.485 29.5116 268.094 29.5116 268.094C29.7612 266.79 29.8444 264.654 29.8444 261.991C33.3665 263.822 37.7761 263.739 40.0779 263.544C39.8006 265.681 39.6342 268.261 39.8006 270.397C39.3291 271.34 37.3046 271.118 37.3046 271.118Z" fill="white"/>
<path d="M40.3552 283.88C36.7222 285.628 37.6374 289.817 33.1723 290.677C29.4561 291.399 23.8818 290.733 21.6908 290.4C21.1085 290.317 20.637 289.845 20.5815 289.235C20.5261 288.819 20.4983 288.264 20.5538 287.681C23.3271 288.014 29.8166 288.735 32.4513 288.208C35.807 287.515 36.7222 284.13 38.4139 283.242C39.6896 282.576 40.5216 281.716 40.8821 281.3C40.9376 281.883 40.9653 282.382 40.9931 282.771C41.0485 283.242 40.7712 283.686 40.3552 283.88Z" fill="#3B2645"/>
<path d="M21.9126 284.047C22.606 283.131 23.6598 281.134 24.7414 278.859C25.2683 280.967 31.9243 280.218 32.8117 280.024C33.6992 279.83 37.3045 271.118 37.3045 271.118C37.3045 271.118 39.329 271.34 39.7727 270.397C39.8005 270.869 39.8559 271.34 39.9114 271.756C40.1887 273.56 40.6324 278.415 40.882 281.3C40.5215 281.716 39.6895 282.576 38.4138 283.242C36.6944 284.13 35.8069 287.487 32.4512 288.208C29.8443 288.763 23.327 288.042 20.5537 287.681C20.6369 286.599 20.9974 285.267 21.9126 284.047Z" fill="#AB8DA8"/>
<path d="M32.7841 280.024C31.8966 280.218 25.2407 280.967 24.7137 278.859C26.9879 274.087 29.4838 268.094 29.4838 268.094C29.4838 268.094 31.0646 266.485 34.3648 267.317C37.6651 268.15 37.2768 271.118 37.2768 271.118C37.2768 271.118 33.6715 279.83 32.7841 280.024Z" fill="#3B2645"/>
<path d="M45.5755 211.787C45.6985 211.14 43.6757 210.211 41.0575 209.714C38.4393 209.216 36.2172 209.337 36.0942 209.984C35.9713 210.632 37.994 211.56 40.6122 212.058C43.2304 212.555 45.4525 212.434 45.5755 211.787Z" fill="#E0855C"/>
<path d="M97.4297 134.012C97.4297 134.012 102.089 163.53 100.48 186.89C100.48 186.89 91.4671 193.632 70.4178 189.609L67.173 171.049L61.8482 189.72C61.8482 189.72 40.0223 191.024 34.1707 182.562C34.1707 182.562 37.3045 147.55 43.9327 133.401C50.5609 119.252 95.2666 122.415 97.4297 134.012Z" fill="#3B2645"/>
<path d="M67.173 171.049C67.173 171.049 64.5661 168.746 64.2887 168.524C64.0114 168.302 61.5986 158.758 61.5986 158.758L64.261 181.258L67.173 171.049Z" fill="#3B2645"/>
<path d="M79.0983 187.389C74.4114 187.389 71.028 187.029 70.9448 187.029C70.8616 187.029 70.8061 186.946 70.8339 186.862C70.8339 186.779 70.9171 186.724 71.0003 186.751C71.1944 186.779 89.8033 188.749 100.647 183.283C100.702 183.256 100.786 183.283 100.841 183.339C100.869 183.394 100.841 183.478 100.786 183.533C94.4347 186.724 85.5324 187.389 79.0983 187.389Z" fill="white"/>
<path d="M62.7081 186.834C62.6804 186.834 62.7081 186.834 62.7081 186.834C42.5184 185.142 34.5036 179.51 34.4204 179.455C34.3649 179.399 34.3372 179.316 34.3927 179.261C34.4481 179.205 34.5313 179.177 34.5868 179.233C34.67 179.288 42.6294 184.865 62.7358 186.557C62.819 186.557 62.8745 186.64 62.8745 186.696C62.819 186.779 62.7636 186.834 62.7081 186.834Z" fill="white"/>
<path d="M83.896 46.8701C83.896 46.8701 79.6251 55.4428 69.8354 56.0809C60.0456 56.7189 56.2462 49.6167 56.2462 49.6167L40.6324 55.7202C40.6324 55.7202 43.4612 65.7632 41.6586 74.4468C41.6586 74.4468 45.7908 89.2062 45.7908 91.065C45.7908 92.9238 49.2574 100.803 49.4793 102.662C49.7012 104.52 43.9327 133.429 43.9327 133.429C43.9327 133.429 71.4993 141.53 77.9057 141.252C84.312 140.975 97.4297 134.011 97.4297 134.011C97.4297 134.011 96.1263 109.792 97.4297 103.827C98.7332 97.8621 103.614 81.9097 103.614 81.9097C103.614 81.9097 99.482 61.0191 100.647 52.6962L83.896 46.8701Z" fill="#AB8DA8"/>
<path d="M100.453 81.5769C100.314 81.5769 100.203 81.4936 100.175 81.3549C97.7349 71.3674 97.2634 51.8084 97.2634 51.6142C97.2634 51.4478 97.3744 51.3368 97.5408 51.3368C97.7072 51.3368 97.8181 51.4478 97.8181 51.6142C97.8181 51.8084 98.2896 71.3119 100.73 81.2439C100.758 81.3827 100.675 81.5491 100.536 81.5769C100.48 81.5769 100.453 81.5769 100.453 81.5769Z" fill="#472938"/>
<path d="M42.5737 77.998C42.5183 77.998 42.4351 77.9703 42.3796 77.9425C42.2687 77.8316 42.2409 77.6651 42.3519 77.5541C47.2329 72.0332 42.7401 55.0267 42.6847 54.8602C42.6569 54.7215 42.7401 54.555 42.8788 54.5273C43.0175 54.4995 43.1839 54.5828 43.2116 54.7215C43.4057 55.4428 47.8153 72.172 42.7401 77.9148C42.7124 77.9703 42.6292 77.998 42.5737 77.998Z" fill="#472938"/>
<path d="M68.3378 59.1048C58.6312 59.1048 53.6115 50.7819 53.5561 50.6709C53.4729 50.5322 53.5283 50.3657 53.667 50.2825C53.8057 50.1993 53.9721 50.2547 54.0553 50.3935C54.1107 50.4767 59.3523 59.1881 69.4748 58.4945C77.6838 57.9396 82.1211 52.6684 83.591 50.9206C84.0901 50.3102 84.2288 50.1715 84.4507 50.227C84.5616 50.2547 84.6448 50.338 84.6725 50.449C84.728 50.5877 84.6448 50.7541 84.4784 50.7819C84.4507 50.7819 84.4507 50.7819 84.4229 50.7819C84.3397 50.8651 84.1733 51.087 84.0069 51.2812C82.5094 53.0568 77.9611 58.4667 69.5026 59.0493C69.1143 59.1048 68.726 59.1048 68.3378 59.1048Z" fill="#472938"/>
<path d="M100.647 52.6962C100.647 52.6962 110.742 52.1413 112.877 68.0659C112.877 68.0659 123.249 87.7636 124.442 94.0613C125.634 100.359 123.499 109.237 120.892 113.787C118.285 118.337 109.605 133.04 108.024 135.288C106.443 137.535 106.693 138.117 102.56 138.423C102.56 138.423 99.5097 138.977 98.8996 139.255C98.2894 139.532 94.6009 141.502 93.8522 141.225C93.1034 140.975 92.3823 139.976 92.521 139.782C92.6874 139.56 96.5423 137.479 96.5423 137.479C96.5423 137.479 90.3301 138.534 89.7477 138.506C89.1653 138.478 88.3055 137.174 88.3055 137.174C88.3055 137.174 86.281 136.259 86.0314 135.537C85.7818 134.816 88.0005 133.373 88.0005 133.373C88.0005 133.373 86.6693 133.04 86.1978 132.347C85.7264 131.653 93.9631 127.242 94.9615 127.298C95.9599 127.353 102.727 128.213 102.727 128.213C102.727 128.213 111.712 99.3047 111.795 97.5014C111.879 95.6981 104.668 88.1797 103.559 81.9098C103.614 81.9098 98.9828 60.1036 100.647 52.6962Z" fill="#FFEDE5"/>
<path d="M87.9172 137.257C87.8063 137.257 87.7231 137.202 87.6676 137.091C87.6122 136.952 87.6676 136.786 87.8063 136.73L94.074 133.873C94.2126 133.817 94.379 133.873 94.4345 134.012C94.49 134.15 94.4345 134.317 94.2958 134.372L88.0281 137.23C88.0004 137.257 87.9727 137.257 87.9172 137.257Z" fill="#472938"/>
<path d="M88.056 133.679C87.9451 133.679 87.8619 133.623 87.8064 133.54C87.7232 133.401 87.7787 133.235 87.9174 133.152L94.0463 129.878C94.185 129.795 94.3514 129.85 94.4346 129.989C94.5178 130.128 94.4623 130.294 94.3237 130.377L88.1947 133.651C88.1392 133.651 88.0838 133.679 88.056 133.679Z" fill="#472938"/>
</svg>
