<svg width="118" height="100" viewBox="0 0 118 100" fill="none" xmlns="http://www.w3.org/2000/svg">
<path d="M0.136473 79.5315C1.36343 74.3137 13.3452 74.4068 18.8438 77.668C15.375 76.4412 9.75521 71.9532 14.2995 68.925C17.1927 66.9683 21.6158 68.3815 25.0543 72.2638C23.186 70.5531 21.5732 68.57 20.2677 66.3782C18.1773 63.3344 17.738 57.4799 22.7216 55.0729C26.9326 53.023 33.3249 54.6691 36.4605 59.654C38.3855 63.1447 39.427 67.0741 39.49 71.0836C39.49 68.3504 39.5809 63.1326 45.2006 63.5519C51.0628 63.9867 49.6389 70.9904 49.7449 74.5311C49.7449 74.5311 49.5177 64.3749 55.9252 60.5547C57.3601 59.6392 58.9837 59.0797 60.6667 58.9206C62.3497 58.7615 64.0456 59.0073 65.6196 59.6385C67.343 60.1802 68.7876 61.3982 69.6388 63.0272C70.49 64.6561 70.6788 66.5639 70.1639 68.3349C68.937 72.4967 64.4078 76.1151 64.4078 76.1151C66.832 74.839 69.3678 73.7991 71.9817 73.0092C77.147 71.9687 85.5236 71.6582 88.841 76.1151C92.1583 80.572 87.3262 86.8769 77.768 87.1564C71.4515 87.3428 17.738 87.5446 11.4063 87.5446C6.40759 87.5291 -1.13593 84.9823 0.136473 79.5315Z" fill="url(#paint0_linear_1444_515)"/>
<path d="M117.864 72.093C116.712 66.5645 105.428 66.6422 100.247 70.1052C103.519 68.7852 108.76 64.0333 104.549 60.7876C101.838 58.7222 97.6719 60.2131 94.4303 64.3283C96.2253 62.4896 97.7554 60.398 98.9746 58.1166C100.929 54.902 101.323 48.799 96.6267 46.128C92.6732 43.9383 86.6596 45.6931 83.6907 50.9886C81.8823 54.7708 80.9246 58.9207 80.8884 63.1326C80.8884 60.2286 80.8126 54.6846 75.5261 55.135C69.9972 55.6009 71.3454 63.0394 71.2696 66.7975C71.2696 66.7975 71.4665 55.927 65.4378 52.0136C64.1375 51.0524 62.6147 50.4565 61.0204 50.2849C59.4262 50.1133 57.8159 50.3719 56.3492 51.0352C54.6537 51.7676 53.2808 53.1147 52.4929 54.8192C51.7049 56.5237 51.557 58.466 52.0776 60.2752C53.0167 64.6234 57.3489 68.3504 57.3489 68.3504C55.0679 67.0203 52.6625 65.9278 50.169 65.0893C45.3066 64.0022 37.4147 63.6761 34.2943 68.397C31.1739 73.1179 35.6727 79.8421 44.7158 80.1372C50.6688 80.3235 101.247 80.5565 107.215 80.5565C111.956 80.6031 119.06 77.8854 117.864 72.093Z" fill="url(#paint1_linear_1444_515)"/>
<path d="M63.9382 1.57369C63.9382 1.57369 70.5123 -0.227714 72.8753 4.40002C72.4404 5.47968 71.7065 6.40508 70.7643 7.06192C69.8222 7.71875 68.7129 8.07825 67.5737 8.096C67.5737 8.096 68.0432 2.55203 63.9382 1.57369Z" fill="#069FAD"/>
<path d="M75.4505 58.7678C69.3175 58.1153 63.5017 55.6494 58.7106 51.6703C53.9196 47.6911 50.3599 42.3703 48.4645 36.355C46.5691 30.3398 46.4199 23.8894 48.0349 17.7888C49.6499 11.6882 52.9595 6.20024 57.5612 1.99268C50.2975 2.33777 43.2688 4.73774 37.2539 8.92666C31.239 13.1156 26.4727 18.9299 23.4831 25.7254C20.4935 32.5209 19.3974 40.0323 20.3162 47.4272C21.2349 54.8222 24.1327 61.812 28.6885 67.6222C33.2442 73.4324 39.28 77.8362 46.1272 80.3456C52.9743 82.8549 60.3654 83.3719 67.4815 81.8393C74.5976 80.3066 81.161 76.7841 86.4443 71.6621C91.7276 66.5401 95.5246 60.0186 97.4146 52.8201C91.0568 57.5066 83.2364 59.6244 75.4505 58.7678Z" fill="#FFB842"/>
<path d="M49.2146 31.7011C48.1869 27.914 47.8935 23.957 48.3512 20.0541C49.2903 12.1031 54.3042 4.5248 65.0136 2.3507C65.1225 2.31691 65.2179 2.24809 65.2857 2.1544C65.3536 2.06071 65.3902 1.94714 65.3902 1.83047C65.3902 1.7138 65.3536 1.60022 65.2857 1.50654C65.2179 1.41285 65.1225 1.34403 65.0136 1.31024C45.8064 -4.63749 26.7507 10.7676 20.7371 25.303C26.6598 35.9717 46.9576 33.7354 49.2146 31.7011Z" fill="url(#paint2_linear_1444_515)"/>
<path d="M35.8696 40.8325H35.6121C34.0782 40.6677 32.5929 40.1849 31.2467 39.4134C29.9004 38.6419 28.7212 37.5978 27.7808 36.3445C27.716 36.2608 27.6683 36.1644 27.6408 36.0613C27.6132 35.9582 27.6063 35.8504 27.6204 35.7445C27.6346 35.6386 27.6695 35.5367 27.7231 35.445C27.7767 35.3533 27.8479 35.2736 27.9323 35.2109C28.1013 35.0799 28.314 35.0227 28.524 35.0518C28.7339 35.0808 28.9242 35.1939 29.0532 35.3661C29.0532 35.3661 31.8555 39.0777 35.6727 39.2019C38.0357 39.2019 40.3685 37.9595 42.5952 35.3196C42.7376 35.1579 42.9358 35.0593 43.1479 35.0448C43.3599 35.0303 43.5692 35.101 43.7313 35.2419C43.8106 35.3117 43.8756 35.3971 43.9225 35.4929C43.9693 35.5888 43.9971 35.6933 44.0041 35.8002C44.0112 35.9072 43.9974 36.0145 43.9635 36.116C43.9297 36.2174 43.8765 36.3109 43.807 36.3911C41.3228 39.3416 38.6568 40.8325 35.8696 40.8325Z" fill="#4F4840"/>
<path d="M36.3849 40.2734H35.4609V44.9943H36.3849V40.2734Z" fill="#4F4840"/>
<path d="M37.5172 39.9824L36.6143 40.1836L37.5921 44.7968L38.495 44.5957L37.5172 39.9824Z" fill="#4F4840"/>
<path d="M38.8752 39.5875L37.9951 39.876L39.3974 44.3727L40.2776 44.0842L38.8752 39.5875Z" fill="#4F4840"/>
<path d="M40.0515 39.0535L39.2153 39.4565L41.1745 43.7288L42.0107 43.3258L40.0515 39.0535Z" fill="#4F4840"/>
<path d="M41.1632 38.3553L40.3833 38.8633L42.8528 42.848L43.6327 42.34L41.1632 38.3553Z" fill="#4F4840"/>
<path d="M42.2221 37.4394L41.4766 37.999L44.1969 41.8081L44.9424 41.2485L42.2221 37.4394Z" fill="#4F4840"/>
<path d="M43.1995 36.6073L42.5015 37.228L45.5189 40.7942L46.2169 40.1735L43.1995 36.6073Z" fill="#4F4840"/>
<path d="M34.2772 39.9776L33.2993 44.5908L34.2023 44.792L35.1801 40.1787L34.2772 39.9776Z" fill="#4F4840"/>
<path d="M32.9241 39.569L31.521 44.0654L32.4011 44.3541L33.8042 39.8576L32.9241 39.569Z" fill="#4F4840"/>
<path d="M31.7556 39.0583L29.7964 43.3306L30.6326 43.7336L32.5918 39.4613L31.7556 39.0583Z" fill="#4F4840"/>
<path d="M30.6276 38.3509L28.1602 42.3369L28.9403 42.8445L31.4077 38.8585L30.6276 38.3509Z" fill="#4F4840"/>
<path d="M29.5743 37.4575L26.854 41.2666L27.5995 41.8262L30.3199 38.0171L29.5743 37.4575Z" fill="#4F4840"/>
<path d="M28.6028 36.6057L25.5859 40.1724L26.284 40.793L29.3009 37.2263L28.6028 36.6057Z" fill="#4F4840"/>
<path d="M65.7561 56.1131C62.8753 58.4095 59.3733 59.7382 55.7283 59.9178C52.3353 59.7936 49.2754 57.5418 47.1699 55.6162C46.75 55.9922 46.2989 56.3299 45.8218 56.6256C54.365 66.7973 65.135 60.5856 68.5887 57.2623C67.5977 57.0138 66.6446 56.6271 65.7561 56.1131Z" fill="#4F4840"/>
<path d="M44.4587 57.7438C44.0428 57.7465 43.629 57.6837 43.2317 57.5575C43.1564 57.5269 43.0878 57.4811 43.03 57.4228C42.9723 57.3645 42.9265 57.2949 42.8954 57.2182C42.8643 57.1414 42.8486 57.0591 42.8491 56.976C42.8497 56.8929 42.8664 56.8108 42.8985 56.7344C42.9592 56.5783 43.0777 56.4532 43.2281 56.3863C43.3785 56.3193 43.5486 56.3161 43.7013 56.3773C43.8073 56.3773 46.3219 57.3246 48.4122 53.349C48.4953 53.21 48.6272 53.109 48.7807 53.0667C48.9343 53.0244 49.0978 53.0441 49.2376 53.1218C49.3774 53.1994 49.4829 53.3291 49.5322 53.484C49.5815 53.639 49.571 53.8074 49.5029 53.9547C47.8215 57.1693 45.7462 57.7438 44.4587 57.7438Z" fill="#4F4840"/>
<path d="M113.865 90.9765C112.608 85.0443 100.141 85.153 94.4304 88.8335C98.0356 87.4359 103.822 82.3422 99.1868 78.8947C96.1573 76.674 91.613 78.2736 88.0079 82.6839C89.973 80.7147 91.6514 78.4658 92.9914 76.0063C95.1575 72.5588 95.5817 65.9433 90.4012 63.1791C86.0387 60.8497 79.3888 62.7287 76.1321 68.3814C73.0117 73.8011 73.1026 81.3639 73.1026 81.3639C73.1026 78.258 72.9966 72.3414 67.1647 72.8072C61.1057 73.3042 62.6204 81.2707 62.4841 85.2307C62.4841 85.2307 62.7113 73.6924 56.0464 69.4063C54.5914 68.3709 52.9033 67.7321 51.1411 67.55C49.3788 67.368 47.6004 67.6488 45.9732 68.3658C44.1271 69.1159 42.6215 70.547 41.7525 72.3776C40.8836 74.2082 40.7141 76.3058 41.2774 78.258C42.4286 82.9168 47.1396 86.9544 47.1396 86.9544C44.6218 85.5313 41.9733 84.3661 39.2325 83.4759C33.8551 82.2957 25.1604 81.9229 21.7067 87.001C18.253 92.0791 23.2215 99.2381 33.2189 99.5487C39.7778 99.7661 95.5968 99.9991 102.171 99.9991C107.367 100.061 115.122 97.1727 113.865 90.9765Z" fill="url(#paint3_linear_1444_515)"/>
<path d="M69.7703 32.726L60.6817 33.2229L60.5908 31.4836L66.3318 23.1133L60.7877 23.4239L60.5908 21.4983L68.8008 21.0635L68.8917 22.7562L63.1356 31.1575L69.6794 30.8159L69.7703 32.726Z" fill="#4F4840"/>
<path d="M71.9058 28.238L71.1938 26.4211L75.1171 24.8682L75.829 26.7627L71.9058 28.238Z" fill="#4F4840"/>
<path d="M79.4948 28.7194L78.6465 27.3062L79.2524 20.287L76.0411 22.3368L75.1777 20.8926L80.5248 17.4917L81.3882 18.9204L80.7823 25.9086L84.5995 23.4705L85.4781 24.9302L79.4948 28.7194Z" fill="#4F4840"/>
<path d="M85.7355 20.287L84.2207 18.9981L86.917 15.6748L88.4317 16.9637L85.7355 20.287Z" fill="#4F4840"/>
<path d="M92.6277 16.2804L91.1129 15.5815L87.9319 9.33876L86.3414 12.8794L84.8267 12.1651L87.4926 6.31055L89.0074 7.0249L92.2338 13.2366L94.1121 9.02818L95.6269 9.75805L92.6277 16.2804Z" fill="#4F4840"/>
<path d="M17.8744 17.973L15.0266 14.4634L10.6035 14.8672L12.9817 11.0159L11.2397 6.82299L15.5416 7.95663L18.8893 4.95947L19.1771 9.50956L22.9943 11.8545L18.859 13.5317L17.8744 17.973Z" fill="#FFB842"/>
<path d="M97.5813 37.9283L95.294 33.549L90.4619 32.99L93.8247 29.4027L92.8401 24.5265L97.2177 26.7006L101.429 24.2314L100.777 29.1698L104.367 32.5241L99.5808 33.4093L97.5813 37.9283Z" fill="#FFB842"/>
<path d="M76.9501 47.4636L74.7234 44.3422L70.9517 44.4509L73.1632 41.314L71.906 37.6646L75.4959 38.8448L78.48 36.4844L78.4952 40.3667L81.6156 42.5408L78.0256 43.7521L76.9501 47.4636Z" fill="#FFB842"/>
<defs>
<linearGradient id="paint0_linear_1444_515" x1="89.8846" y1="87.5446" x2="-25.6087" y2="63.4434" gradientUnits="userSpaceOnUse">
<stop stop-color="#92A3FD"/>
<stop offset="1" stop-color="#9DCEFF"/>
</linearGradient>
<linearGradient id="paint1_linear_1444_515" x1="117.997" y1="80.5571" x2="8.22045" y2="60.2057" gradientUnits="userSpaceOnUse">
<stop stop-color="#92A3FD"/>
<stop offset="1" stop-color="#9DCEFF"/>
</linearGradient>
<linearGradient id="paint2_linear_1444_515" x1="65.3902" y1="33.4018" x2="6.15434" y2="27.2741" gradientUnits="userSpaceOnUse">
<stop stop-color="#C58BF2"/>
<stop offset="1" stop-color="#EEA4CE"/>
</linearGradient>
<linearGradient id="paint3_linear_1444_515" x1="114.001" y1="100" x2="-6.79525" y2="76.9054" gradientUnits="userSpaceOnUse">
<stop stop-color="#C58BF2"/>
<stop offset="1" stop-color="#EEA4CE"/>
</linearGradient>
</defs>
</svg>
