<svg width="309" height="352" viewBox="0 0 309 352" fill="none" xmlns="http://www.w3.org/2000/svg">
<path d="M159.367 72.6545L164.233 111.316L118.967 113.687V85.0743L159.367 72.6545Z" fill="#FFEDE5"/>
<path d="M118.967 103.938C118.967 103.938 147.267 117.994 155.267 73.9233L118.967 85.0744V103.938Z" fill="#E0855C"/>
<path d="M111.918 66.0285C115.179 65.0436 116.379 59.4511 114.598 53.5373C112.818 47.6234 108.731 43.6276 105.47 44.6124C102.21 45.5972 101.01 51.1897 102.79 57.1036C104.571 63.0175 108.657 67.0133 111.918 66.0285Z" fill="#E0855C"/>
<path d="M106.867 38.6003C106.867 38.6003 107.733 99.5641 134.167 101.501C160.6 103.437 162.7 54.2919 162.867 38.6003C163.033 22.9086 146.333 18.4014 131.4 18.5683C116.467 18.7352 107.567 26.4142 106.867 38.6003Z" fill="#FFEDE5"/>
<path d="M161.733 52.222C161.733 52.222 155 42.8737 155.233 31.6224C155.233 31.6224 132.367 42.6066 117.2 33.9261C117.2 33.9261 108.133 39.5685 107.733 51.4541L104.633 44.9771C104.633 44.9771 102.967 31.4889 103.9 28.3172C104.467 26.4141 105.8 24.8116 107.567 23.9435C107.567 23.9435 99.8666 6.883 118.667 0.105522C118.667 0.105522 118.733 4.21207 126.233 3.6445C133.733 3.07693 168.466 0.973578 165.7 19.5365C165.667 19.5031 173.4 31.6225 161.733 52.222Z" fill="#3B2645"/>
<path d="M169.574 53.8667C171.209 47.9108 169.873 42.3492 166.589 41.4446C163.305 40.5399 159.318 44.6348 157.682 50.5907C156.046 56.5466 157.383 62.1081 160.666 63.0128C163.95 63.9174 167.938 59.8226 169.574 53.8667Z" fill="#FFEDE5"/>
<path d="M161.733 56.3285C161.7 56.3285 161.633 56.3285 161.6 56.2951C161.433 56.2284 161.367 56.028 161.433 55.8611L164.367 49.7847C164.433 49.6178 164.633 49.551 164.8 49.6178C164.967 49.6846 165.033 49.8849 164.967 50.0518L162.033 56.1282C161.967 56.2617 161.867 56.3285 161.733 56.3285Z" fill="#472938"/>
<path d="M133.133 72.7213C131.5 72.7213 128.333 71.8532 127.6 70.5178C127.1 69.5829 128.1 64.3413 130.033 55.5606C130.367 53.9915 130.667 52.7561 130.767 52.1552C131.167 49.9517 129.933 49.3507 129.867 49.3507C129.7 49.2839 129.633 49.0836 129.7 48.9167C129.767 48.7498 129.967 48.683 130.133 48.7498C130.2 48.7832 131.9 49.551 131.4 52.2887C131.3 52.8897 131.033 54.125 130.667 55.7276C129.767 59.8007 127.667 69.3492 128.167 70.2173C128.767 71.319 132.5 72.3206 133.6 72.0202C134.7 71.7197 136.867 70.1171 136.9 70.1171C137.033 70.017 137.267 70.0504 137.367 70.1839C137.467 70.3175 137.433 70.5512 137.3 70.6513C137.2 70.7181 135 72.3207 133.8 72.6545C133.6 72.6879 133.4 72.7213 133.133 72.7213Z" fill="#472938"/>
<path d="M133.8 82.537C130.8 82.537 128.467 81.8025 128.433 81.8025C128.267 81.7357 128.167 81.5688 128.233 81.3684C128.3 81.2015 128.467 81.1014 128.667 81.1681C128.767 81.2015 140.1 84.7071 144.367 75.8597C144.433 75.6927 144.633 75.6259 144.8 75.6927C144.967 75.7595 145.033 75.9598 144.967 76.1267C142.4 81.3684 137.567 82.537 133.8 82.537Z" fill="#472938"/>
<path d="M146.167 50.3189C147.233 50.3189 148.1 51.187 148.1 52.2553V53.6909C148.1 54.7593 147.233 55.6274 146.167 55.6274C145.1 55.6274 144.233 54.7593 144.233 53.6909V52.2553C144.233 51.187 145.066 50.3189 146.167 50.3189Z" fill="#472938"/>
<path d="M120.133 51.6544C121.2 51.5543 122.133 52.3222 122.233 53.3905L122.367 54.8261C122.467 55.8945 121.7 56.8293 120.633 56.9295C119.567 57.0297 118.633 56.2618 118.533 55.1934L118.4 53.7578C118.3 52.6894 119.067 51.7546 120.133 51.6544Z" fill="#472938"/>
<path d="M152.8 44.1425C150.467 42.807 147.7 42.6067 145.2 43.5749C141.033 45.2442 139.8 44.1091 139.533 43.5415C139.266 42.9739 142.067 40.2028 147.667 40.4365C151.5 40.5701 152.8 44.1425 152.8 44.1425Z" fill="#472938"/>
<path d="M112 47.214C114.067 45.5113 116.8 44.8769 119.4 45.4111C123.8 46.3793 124.8 45.0772 124.967 44.4763C125.133 43.8753 121.933 41.6051 116.433 42.7068C112.7 43.5081 112 47.214 112 47.214Z" fill="#472938"/>
<path d="M216.767 130.914L194.933 122.768C137.967 140.63 113.333 126.674 103.8 117.025C103.8 117.025 69.2333 121.9 64.6333 125.706C60.0333 129.512 73.1667 245.731 73.8333 271.171C74.2667 287.397 72.2333 310.968 70.7 325.858C95.9 342.451 125.433 351.967 157.967 351.967C177.733 351.967 197.4 345.323 215.833 334.205C212.733 308.297 206.267 254.177 206 246.398C205.667 236.149 216.767 130.914 216.767 130.914Z" fill="#AB8DA8"/>
<path d="M118.967 113.687L103.8 117.025C113.333 126.674 137.967 140.63 194.967 122.801L164.233 111.316L118.967 113.687Z" fill="#FFEDE5"/>
<path d="M207.4 225.598C207.4 225.598 192.633 154.518 183.133 126.14C181.8 122.133 180.567 118.995 179.5 117.025L166.733 112.251C166.733 112.251 168.567 119.129 170.967 128.844C175.433 146.773 181.9 174.317 182.7 185.935H114.333V114.688L102.667 117.025C102.667 117.025 102.667 117.125 102.633 117.292C101.7 122.901 84.6001 221.792 71.9001 243.794C71.9001 243.794 73.6667 265.662 73.8001 271.171C74.2334 287.397 72.2001 310.968 70.6667 325.858C95.8667 342.451 125.4 351.967 157.933 351.967C177.7 351.967 197.367 345.323 215.8 334.205C212.7 308.297 206.233 254.177 205.967 246.398C205.933 243.961 206.5 236.115 207.4 225.598Z" fill="#3B2645"/>
<path d="M71.4334 238.018L82.7001 189.341L68.3334 202.862L71.4334 238.018Z" fill="#543753"/>
<path d="M148.567 293.507C139.533 293.507 131.9 290.235 125.867 283.825C116.067 273.375 112.2 256.214 110.7 243.661C109.067 230.072 109.733 218.821 109.767 218.721L109.8 218.42H187.367L187.4 218.721C187.4 218.821 188.1 230.106 186.467 243.661C184.967 256.214 181.1 273.375 171.3 283.825C165.233 290.235 157.6 293.507 148.567 293.507ZM110.4 219.055C110.3 220.958 109.9 231.341 111.367 243.594C112.867 256.047 116.7 273.041 126.367 283.357C132.267 289.634 139.733 292.839 148.567 292.839C157.4 292.839 164.867 289.634 170.767 283.357C180.433 273.041 184.267 256.047 185.767 243.594C187.233 231.341 186.833 220.958 186.733 219.055H110.4Z" fill="white"/>
<path d="M64.5999 125.706C64.5999 125.706 51.3666 136.423 20.8666 198.589L62.5999 234.513L86.5999 190.743C86.5999 190.743 76.2666 123.87 64.5999 125.706Z" fill="#AB8DA8"/>
<path d="M71.1 321.785C71.1 321.785 89.4666 330.299 92.3333 329.13C95.2 327.962 91.6666 303.79 90.7666 303.523C89.8666 303.256 73.9 291.003 70.7 291.771C68.4666 292.305 66.4 299.483 66.4 299.483L32.2333 273.475L57.9333 230.506L20.8666 198.589C20.8666 198.589 9.33331 218.888 0.0999756 237.885C15.6333 274.81 39.9666 305.593 70.7 325.858L71.1 321.785Z" fill="#FFEDE5"/>
<path d="M20.8666 198.589L57.9332 230.506L54.2999 236.583L20.8666 198.589Z" fill="#E0855C"/>
<path d="M216.767 130.914C222.7 132.984 263.2 184.9 263.2 184.9L218.867 218.687C218.867 218.687 202.433 196.051 200.867 184.9C199.3 173.749 204.767 126.741 216.767 130.914Z" fill="#AB8DA8"/>
<path d="M263.233 184.934C263.233 184.934 306.533 246.165 308.367 259.486C310.2 272.807 304.733 287.364 268.467 287.13C232.2 286.896 200.767 283.123 192.533 284.693C184.3 286.262 165.933 287.297 162.8 286.395C159.667 285.494 148.833 259.486 149.367 255.947C149.9 252.408 155.367 250.338 155.367 250.338C155.367 250.338 153.833 248.001 154.267 245.764C154.7 243.527 173.7 248.168 177.867 248.635C182.033 249.103 191.133 259.419 193.467 259.953C195.8 260.487 252.667 251.773 252.667 251.773L220.9 217.152L263.233 184.934Z" fill="#FFEDE5"/>
<path d="M263.233 184.934L220.9 217.152L225.833 222.56L263.233 184.934Z" fill="#E0855C"/>
<path d="M252.667 251.773L274.2 248.001C274.2 248.001 263.9 247.467 262.2 226.767L252.667 251.773Z" fill="#E0855C"/>
<path d="M262.167 218.721H159.667C159.033 229.404 160 238.385 161.567 245.664C167.533 246.565 175.4 248.335 177.9 248.635C182.067 249.102 191.167 259.452 193.5 259.953C195.833 260.454 252.667 251.773 252.667 251.773C263.867 246.665 262.167 218.721 262.167 218.721Z" fill="#E3DCF7"/>
<path d="M183.533 249.436C176.867 246.165 161.567 245.697 161.567 245.697C167.533 246.599 175.4 248.368 177.9 248.669C182.067 249.136 191.167 259.486 193.5 259.987C194.533 260.22 205.8 258.684 218.267 256.915C199.333 258.851 190.167 252.675 183.533 249.436Z" fill="#3B2645"/>
<path d="M159.667 218.721C159.667 218.721 151.667 211.409 153.133 208.538C154.6 205.667 160.867 211.075 160.867 211.075C160.867 211.075 155.5 197.32 159.467 195.918C163.433 194.516 176.8 210.274 176.8 210.274C176.8 210.274 173.767 195.717 175.567 195.116C177.367 194.515 187.833 208.171 187.833 208.171C187.833 208.171 192 190.776 196.333 190.709C200.667 190.643 197.567 210.608 197.567 210.608C197.567 210.608 202.267 195.283 205.833 196.318C209.4 197.353 209.733 213.746 209.733 213.746C209.733 213.746 210.367 201.193 212.933 200.692C215.5 200.191 218.867 218.721 218.867 218.721H159.667Z" fill="#679E97"/>
<path d="M222.333 218.721C222.333 218.721 227.567 201.46 230.1 201.226C232.633 200.992 232.8 215.482 232.8 215.482C232.8 215.482 237.933 198.489 239.5 198.054C241.067 197.62 242.1 209.372 242.1 209.372C242.1 209.372 250.3 197.587 252.2 198.021C254.1 198.455 251.6 209.372 251.6 209.372C251.6 209.372 259.433 198.221 264.567 199.891C269.7 201.56 262.233 218.687 262.233 218.687L222.333 218.721Z" fill="#679E97"/>
<path d="M262.167 218.721C262.167 218.721 273.734 207.937 270.7 205.566C267.667 203.196 253.734 212.144 253.734 212.144C253.734 212.144 265.134 197.287 264.6 192.846C264.067 188.406 242.434 216.617 242.434 216.617C242.434 216.617 251.8 196.485 249.467 195.417C247.134 194.349 237.5 217.085 237.5 217.085C237.5 217.085 240.367 204.498 237.5 204.565C234.634 204.632 230.667 217.719 230.667 217.719C230.667 217.719 226.7 203.83 224 203.296C221.3 202.762 221.667 211.209 221.667 211.209C221.667 211.209 219.234 204.665 216.8 205.032C214.367 205.4 217.234 214.08 217.234 214.08C217.234 214.08 209.767 201.727 205.567 201.527C201.367 201.326 199.334 214.547 199.334 214.547C199.334 214.547 200.733 201.827 197.934 201.493C195.133 201.159 193.167 215.249 193.167 215.249C193.167 215.249 191.767 195.217 186.2 194.682C180.633 194.148 184.967 210.007 184.967 210.007C184.967 210.007 175.934 203.73 173.734 205.032C171.534 206.334 176.867 218.721 176.867 218.721H262.167Z" fill="#85CCC6"/>
<path d="M209.5 203.697C209.467 203.697 209.467 203.697 209.5 203.697C209.3 203.663 209.167 203.53 209.167 203.33L212.633 168.14C212.667 167.973 212.8 167.806 213 167.84C213.167 167.873 213.333 168.007 213.3 168.207L209.833 203.396C209.8 203.563 209.667 203.697 209.5 203.697Z" fill="#472938"/>
</svg>
