<svg width="244" height="279" viewBox="0 0 244 279" fill="none" xmlns="http://www.w3.org/2000/svg">
<path d="M98.6 16.8279C98.6 16.8279 101.067 0.0369415 119.967 0.0369415C138.867 0.0369415 148.033 21.5161 152.3 34.1176C156.567 46.7191 167.567 58.5892 181.9 65.6048C196.233 72.6204 207.067 80.168 205.233 96.0612C205.233 96.0612 235.9 120.001 177.467 124.423C119.033 128.845 90.3334 92.171 93.8667 73.2854C97.4 54.3997 74.6 28.7977 98.6 16.8279Z" fill="#3B2645"/>
<path d="M133.967 57.1262C133.967 57.1262 131.3 82.9277 142.633 85.1887C142.633 85.1887 147.333 131.505 120.9 131.505C94.4667 131.505 97.1667 86.5851 97.1667 86.5851C97.1667 86.5851 108.433 83.626 107.533 58.7221C106.633 33.8183 134.333 39.8032 133.967 57.1262Z" fill="#FFEDE5"/>
<path d="M126.1 59.4204C128.333 50.9418 116.833 49.2128 109.1 48.9801C108 51.4738 107.367 54.699 107.5 58.7221C107.667 62.2466 107.5 65.8043 107.067 69.3287C111.467 69.6612 123.4 69.628 126.1 59.4204Z" fill="#E0855C"/>
<path d="M104.317 51.5081C106.702 50.6902 107.393 46.4233 105.861 41.9776C104.329 37.5319 101.153 34.5909 98.7683 35.4088C96.3831 36.2267 95.6916 40.4937 97.2238 44.9393C98.7559 49.385 101.932 52.326 104.317 51.5081Z" fill="#E0855C"/>
<path d="M144.017 44.8997C145.549 40.454 144.857 36.187 142.472 35.3691C140.087 34.5512 136.911 37.4922 135.379 41.9379C133.847 46.3836 134.539 50.6506 136.924 51.4684C139.309 52.2863 142.484 49.3454 144.017 44.8997Z" fill="#E0855C"/>
<path d="M100.033 20.9841C100.033 20.9841 98.2 65.505 119.333 65.6048C135.767 65.6713 140.467 45.6884 140.733 23.1785C141 0.668686 100.3 3.69437 100.033 20.9841Z" fill="#FFEDE5"/>
<path d="M121 52.571C117.467 52.571 114.367 50.443 114.333 50.4098C114.167 50.31 114.133 50.1105 114.267 49.9443C114.367 49.7781 114.567 49.7448 114.733 49.8778C114.8 49.911 120.8 54.0007 125.233 50.5095C125.367 50.4098 125.6 50.4098 125.7 50.576C125.8 50.7423 125.8 50.9418 125.633 51.0415C124.133 52.172 122.533 52.571 121 52.571Z" fill="#472938"/>
<path d="M107.267 34.1508C107.267 34.1508 110.033 35.913 114.7 34.4833C114.7 34.4501 110.733 38.5065 107.267 34.1508Z" fill="#472938"/>
<path d="M133.8 34.5166C133.8 34.5166 131.033 36.2788 126.367 34.8491C126.367 34.8491 130.333 38.9056 133.8 34.5166Z" fill="#472938"/>
<path d="M105.667 28.7312C105.667 28.7312 109.167 24.8742 114.267 26.0712C116.867 26.6697 115.867 23.4778 111.167 23.6773C106.467 23.8768 105.667 28.7312 105.667 28.7312Z" fill="#472938"/>
<path d="M135.667 28.7312C135.667 28.7312 132.167 24.8742 127.067 26.0712C124.467 26.6697 125.467 23.4778 130.167 23.6773C134.867 23.8768 135.667 28.7312 135.667 28.7312Z" fill="#472938"/>
<path d="M120.2 45.1232C119.2 45.1232 117.067 44.3917 116.333 43.6602C116.067 43.3942 115.967 43.1282 116 42.8622C116.067 42.4632 116.367 41.1997 116.8 39.6038C117.367 37.3095 118.1 34.4833 118.333 33.0869C118.567 31.7569 118.333 30.3604 117.7 29.1634C117.6 28.9972 117.667 28.7977 117.833 28.6979C118 28.5982 118.2 28.6647 118.3 28.8309C119 30.1609 119.267 31.6904 119 33.1866C118.767 34.6163 118.033 37.4758 117.467 39.77C117.067 41.2995 116.733 42.6295 116.7 42.962C116.7 42.9952 116.733 43.0617 116.833 43.1947C117.533 43.8929 119.733 44.5579 120.367 44.4582C121.2 44.3252 122.933 43.5272 123.533 42.829C123.667 42.696 123.867 42.696 124 42.7957C124.133 42.9287 124.133 43.1282 124.033 43.2612C123.3 44.0592 121.433 44.9569 120.467 45.0899C120.333 45.1232 120.267 45.1232 120.2 45.1232Z" fill="#472938"/>
<path d="M100.333 32.3886C100.333 32.3886 101.667 21.782 104.967 17.8919C104.967 17.8919 110.5 15.4314 119.3 20.6516C128.1 25.8717 134.267 30.2607 142.433 28.9639C142.433 28.9639 143.2 3.6611 122.1 5.02433C101 6.38756 96.6667 17.3931 100.333 32.3886Z" fill="#3B2645"/>
<path d="M239.767 188.727C239.433 188.195 238.433 189.093 238.433 189.093C238.433 189.093 237.4 187.929 234.6 188.761C231.8 189.592 223.5 196.707 223.5 196.707C219.767 196.641 213.667 200.298 213.667 200.298C213.667 200.298 209.067 198.403 204.9 192.152C200.733 185.901 196.2 182.842 196.2 182.842C196.2 182.842 186.433 143.674 179.833 119.236C173.133 122.062 164.433 133.201 158.233 142.178C158.367 146.401 158.5 149.094 158.5 149.094C158.5 149.094 180.233 206.616 183.033 208.345C185.833 210.073 217.8 213.93 218.133 213.698C218.467 213.465 221.4 214.23 222.6 213.698C223.8 213.166 225.267 214.03 226.733 213.033C228.2 212.035 230.733 213.565 231.767 212.6C232.8 211.636 234.6 212.035 235.8 211.47C237 210.905 243.7 201.462 243.833 199.766C243.967 198.07 240.1 189.259 239.767 188.727Z" fill="#FFEDE5"/>
<path d="M163.833 130.707C163.833 130.707 175.2 150.058 166.2 169.11L158.467 149.028L163.833 130.707Z" fill="#E0855C"/>
<path d="M179.8 119.17C177.433 110.392 175.467 103.509 174.5 101.015C170.833 91.4396 164.067 91.0073 164.067 91.0073C157.4 91.1071 157.733 126.75 158.2 142.112C164.4 133.134 173.1 122.029 179.8 119.17Z" fill="#AB8DA8"/>
<path d="M188.8 184.87C188.667 184.87 188.533 184.771 188.467 184.638C188.433 184.471 188.533 184.272 188.7 184.239L195.233 182.51C195.4 182.476 195.6 182.576 195.633 182.742C195.667 182.909 195.567 183.108 195.4 183.141L188.867 184.87C188.867 184.87 188.833 184.87 188.8 184.87Z" fill="#472938"/>
<path d="M221.133 207.513C220.967 207.513 220.8 207.38 220.8 207.181C220.633 203.124 215.833 202.958 215.633 202.958C215.433 202.958 215.3 202.792 215.3 202.626C215.3 202.426 215.467 202.293 215.633 202.293C215.7 202.293 221.233 202.493 221.433 207.147C221.5 207.347 221.333 207.513 221.133 207.513C221.167 207.513 221.167 207.513 221.133 207.513Z" fill="#472938"/>
<path d="M219.667 210.539C219.633 210.539 219.567 210.539 219.533 210.506C219.367 210.439 219.3 210.24 219.367 210.073C219.767 209.209 223.367 201.429 224.867 200.431C226.1 199.6 227.6 199.866 228.2 200.398C228.6 200.73 228.467 201.063 228.433 201.163C228.267 201.528 226.333 206.316 225.367 208.777C225.3 208.943 225.1 209.043 224.933 208.976C224.767 208.91 224.667 208.71 224.733 208.544C224.833 208.245 227.433 201.794 227.8 200.963C227.733 200.897 227.567 200.764 227.233 200.697C226.967 200.631 226.1 200.464 225.233 201.03C224.1 201.794 221.033 208.045 219.933 210.406C219.9 210.472 219.8 210.539 219.667 210.539Z" fill="#472938"/>
<path d="M230.2 208.045C230 208.045 229.867 207.912 229.867 207.713C229.867 207.646 229.867 207.646 230.8 204.355C231.567 201.661 232.8 197.272 232.933 196.574C232.733 196.375 231.8 195.976 231.167 196.175C230.667 196.341 229.133 198.602 228 200.597C227.9 200.764 227.7 200.797 227.533 200.73C227.367 200.631 227.333 200.431 227.4 200.265C228 199.234 230 195.843 230.933 195.51C231.733 195.244 232.767 195.61 233.233 195.942C233.467 196.109 233.6 196.308 233.6 196.474C233.6 196.674 233.133 198.37 231.433 204.488C231 206.05 230.567 207.547 230.533 207.713C230.533 207.912 230.367 208.045 230.2 208.045Z" fill="#472938"/>
<path d="M234.9 207.347C234.867 207.347 234.867 207.347 234.833 207.347C234.667 207.314 234.533 207.114 234.567 206.948C235.733 201.761 237.433 193.848 237.467 192.983C237.333 192.784 236.733 192.451 235.7 192.451C235.133 192.451 233.7 194.346 232.733 196.109C232.633 196.275 232.433 196.341 232.267 196.242C232.1 196.142 232.033 195.942 232.133 195.776C232.667 194.845 234.467 191.786 235.7 191.786C236.867 191.786 237.833 192.185 238.1 192.75C238.167 192.883 238.333 193.249 235.2 207.081C235.2 207.247 235.067 207.347 234.9 207.347Z" fill="#472938"/>
<path d="M237.4 192.784C237.267 192.784 237.133 192.684 237.067 192.551C236.533 190.855 238.1 188.96 238.167 188.894C238.3 188.761 238.5 188.727 238.633 188.86C238.767 188.993 238.8 189.193 238.667 189.326C238.667 189.359 237.267 191.022 237.7 192.385C237.767 192.551 237.667 192.75 237.467 192.817C237.467 192.784 237.433 192.784 237.4 192.784Z" fill="#472938"/>
<path d="M235.633 204.122C235.567 204.122 235.5 204.089 235.467 204.055C235.3 203.956 235.267 203.756 235.367 203.59L238.1 199.467L237.3 194.48C237.267 194.313 237.4 194.114 237.567 194.114C237.733 194.081 237.933 194.214 237.933 194.38L238.8 199.633L235.933 203.989C235.833 204.055 235.733 204.122 235.633 204.122Z" fill="#472938"/>
<path d="M4.46671 194.28C4.76671 193.748 5.80005 194.579 5.80005 194.579C5.80005 194.579 6.80005 193.382 9.63338 194.114C12.4667 194.845 21.0334 201.595 21.0334 201.595C24.7334 201.395 31.0334 204.787 31.0334 204.787C31.0334 204.787 35.5667 202.692 39.5 196.275C43.4334 189.858 47.8334 186.599 47.8334 186.599C47.8334 186.599 56 147.099 61.6334 122.362C68.4334 124.922 77.5667 135.695 84.1334 144.406C84.1667 148.629 84.1667 151.322 84.1667 151.322C84.1667 151.322 64.7667 209.641 62.0334 211.503C59.3 213.365 27.5 218.452 27.2 218.253C26.9 218.053 23.9667 218.918 22.7334 218.419C21.5 217.92 20.1 218.885 18.5667 217.92C17.0334 216.956 14.6 218.585 13.5 217.688C12.4 216.79 10.6667 217.222 9.40005 216.723C8.13338 216.225 1.10005 207.048 0.90005 205.352C0.70005 203.656 4.16671 194.812 4.46671 194.28Z" fill="#FFEDE5"/>
<path d="M78.0334 133.301C78.0334 133.301 67.4667 153.117 77.2 171.77L84.1 151.388L78.0334 133.301Z" fill="#E0855C"/>
<path d="M61.6 122.395C63.6 113.55 65.3 106.601 66.1666 104.041C69.4333 94.3322 76.2 93.6008 76.2 93.6008C82.8666 93.4345 83.9333 129.078 84.1 144.439C77.5333 135.761 68.4 124.988 61.6 122.395Z" fill="#AB8DA8"/>
<path d="M55.2334 188.395C55.2001 188.395 55.2001 188.395 55.1667 188.395L48.5667 186.932C48.4001 186.899 48.2667 186.699 48.3001 186.533C48.3334 186.367 48.5334 186.234 48.7001 186.267L55.3001 187.73C55.4667 187.763 55.6001 187.963 55.5667 188.129C55.5334 188.295 55.3667 188.395 55.2334 188.395Z" fill="#472938"/>
<path d="M23.8 212.301C23.6 212.301 23.4667 212.135 23.4667 211.969C23.5 207.28 29 206.882 29.0667 206.882C29.2333 206.882 29.4 207.015 29.4333 207.181C29.4333 207.38 29.3 207.513 29.1333 207.546C28.9333 207.546 24.1667 207.912 24.1667 211.969C24.1333 212.168 24 212.301 23.8 212.301Z" fill="#472938"/>
<path d="M25.4334 215.26C25.3001 215.26 25.2001 215.194 25.1334 215.094C23.9667 212.8 20.6334 206.649 19.4667 205.917C18.5667 205.385 17.7001 205.585 17.4334 205.651C17.1334 205.751 16.9667 205.884 16.9001 205.951C17.3001 206.782 20.1334 213.132 20.2667 213.432C20.3334 213.598 20.2667 213.797 20.1001 213.864C19.9334 213.93 19.7334 213.864 19.6667 213.698C18.5667 211.27 16.4667 206.549 16.3001 206.183C16.1667 205.951 16.2667 205.651 16.5001 205.419C17.0667 204.887 18.5667 204.554 19.8334 205.319C21.4001 206.25 25.3001 213.897 25.7334 214.762C25.8001 214.928 25.7667 215.127 25.6001 215.194C25.5334 215.26 25.4667 215.26 25.4334 215.26Z" fill="#472938"/>
<path d="M14.7667 213.166C14.6 213.166 14.4667 213.066 14.4333 212.9C14.4 212.733 13.9667 211.403 13.4667 209.841C11.4667 203.69 10.9333 201.961 10.9333 201.761C10.9333 201.562 11.0333 201.395 11.2667 201.229C11.7333 200.863 12.7333 200.464 13.5667 200.697C14.5333 200.963 16.6667 204.288 17.3 205.286C17.4 205.452 17.3333 205.651 17.2 205.751C17.0333 205.851 16.8334 205.784 16.7334 205.651C15.5 203.69 13.8667 201.495 13.4 201.362C12.7333 201.163 11.8333 201.628 11.6333 201.828C11.8 202.426 13.2333 206.948 14.1333 209.674C15.1333 212.767 15.1333 212.767 15.1333 212.833C15.1333 212.999 14.9667 213.166 14.7667 213.166C14.8 213.166 14.8 213.166 14.7667 213.166Z" fill="#472938"/>
<path d="M10.0667 212.7C9.93333 212.7 9.79999 212.6 9.73333 212.467C6.06666 198.735 6.23333 198.37 6.26666 198.237C6.5 197.638 7.43333 197.206 8.63333 197.173H8.66666C9.89999 197.173 11.8 200.132 12.3667 201.03C12.4667 201.196 12.4 201.395 12.2667 201.495C12.1 201.595 11.9 201.528 11.8 201.395C10.7667 199.7 9.26666 197.838 8.7 197.838C7.7 197.871 7.09999 198.237 6.96666 198.436C7.03333 199.301 9.06666 207.148 10.4333 212.268C10.4667 212.434 10.3667 212.634 10.2 212.667C10.1 212.667 10.0667 212.7 10.0667 212.7Z" fill="#472938"/>
<path d="M7.00003 198.27C6.96669 198.27 6.93336 198.27 6.90003 198.27C6.73336 198.237 6.60003 198.037 6.66669 197.871C7.03336 196.474 5.60002 194.878 5.56669 194.845C5.43336 194.712 5.46669 194.513 5.60003 194.38C5.73336 194.247 5.93336 194.28 6.06669 194.413C6.13336 194.479 7.76669 196.308 7.30003 198.037C7.26669 198.17 7.13336 198.27 7.00003 198.27Z" fill="#472938"/>
<path d="M9.20002 209.475C9.10002 209.475 9.00002 209.442 8.93336 209.342L5.90002 205.119L6.53336 199.833C6.56669 199.666 6.73336 199.533 6.90002 199.533C7.06669 199.567 7.20003 199.733 7.20003 199.899L6.60003 204.92L9.50002 208.943C9.60002 209.076 9.56669 209.309 9.43336 209.408C9.33336 209.475 9.26669 209.475 9.20002 209.475Z" fill="#472938"/>
<path d="M142.6 85.1887L164.067 91.0073C164.067 91.0073 161.467 125.62 165.9 132.769C170.333 139.917 167.867 156.176 162.5 164.256C162.5 164.256 153.9 191.853 156.233 198.336C158.567 204.82 166.4 219.151 166.4 219.151C166.4 219.151 131.433 236.839 80.8333 221.112C80.8333 221.112 90.8666 200.032 89.3 191.953C87.7333 183.873 76.9 161.363 77.0333 150.723C77.1666 140.083 80.5666 111.688 75.6 93.7338L97.0666 86.5851C97.0666 86.5851 97.4333 128.745 121.867 128.745C146.3 128.745 142.6 85.1887 142.6 85.1887Z" fill="#AB8DA8"/>
<path d="M162.533 164.256C162.533 164.256 159.867 169.576 142.933 171.803C142.933 171.803 159.233 173.034 157.6 182.809L162.533 164.256Z" fill="#543753"/>
<path d="M79.3666 162.76C79.3666 162.76 83.3666 170.241 101.467 171.936C101.467 171.936 81.6332 168.944 85.3332 179.783L79.3666 162.76Z" fill="#543753"/>
<path d="M77.1333 152.585C76.9666 152.585 76.8 152.452 76.8 152.286C76.7666 151.721 76.7333 151.222 76.7666 150.723C76.7999 148.329 77 145.071 77.2 141.28C77.5 136.093 77.8666 129.643 77.9666 123.026C77.9666 122.827 78.1 122.694 78.3 122.694C78.5 122.694 78.6333 122.86 78.6333 123.026C78.5333 129.643 78.1666 136.127 77.8666 141.314C77.6333 145.104 77.4666 148.363 77.4333 150.756C77.4333 151.222 77.4333 151.721 77.4666 152.253C77.4666 152.386 77.3333 152.552 77.1333 152.585Z" fill="#472938"/>
<path d="M165.9 133.101C165.8 133.101 165.667 133.035 165.6 132.935C164.133 130.574 163.267 125.154 163.033 116.842C163.033 116.643 163.167 116.51 163.367 116.51C163.533 116.51 163.7 116.643 163.7 116.842C163.933 125.055 164.767 130.375 166.167 132.602C166.267 132.769 166.2 132.968 166.067 133.068C166.033 133.068 165.967 133.101 165.9 133.101Z" fill="#472938"/>
<path d="M82.0001 218.652C82.0001 218.652 100.833 225.8 122.867 225.036C144.9 224.271 189 208.378 209.6 211.636C230.2 214.895 228.867 223.639 228.167 227.662C227.467 231.686 184.7 292.033 147.133 292.033H89.5667C89.5667 292.033 18.8334 247.579 16.5334 234.744C14.2334 221.91 15.9001 214.23 35.6334 213.864C55.3667 213.498 76.7001 216.923 82.0001 218.652Z" fill="#3B2645"/>
<path d="M122.133 238.236C122.133 238.236 150.267 226.565 173.767 222.542C173.767 222.542 188.9 245.95 184.467 265.733C184.433 265.733 130.633 253.963 122.133 238.236Z" fill="#FFEDE5"/>
<path d="M122.133 238.236C122.133 238.236 190.2 247.113 184.433 265.733C178.667 284.353 122.133 238.236 122.133 238.236Z" fill="#E0855C"/>
<path d="M152.733 271.917C152.733 271.917 82.9667 277.902 67.6667 281.028C52.3667 284.153 36.8667 282.757 27.4 286.048C17.9334 289.34 12.7 291.867 11.5667 292C10.4333 292.133 7.83335 277.47 12.6 272.283C12.6 272.283 11.1333 266.996 17.8 262.907C24.4667 258.817 35.5333 264.204 39.6333 262.907C43.7333 261.61 46.6667 260.413 51.0334 261.344C55.4 262.275 66.0667 264.902 66.0667 264.902C66.0667 264.902 121 230.09 152.733 271.917Z" fill="#FFEDE5"/>
<path d="M66.1 264.902L107.533 276.14L152.733 271.917C152.733 271.917 132.133 250.771 103.7 252.733C75.2666 254.694 66.1 264.902 66.1 264.902Z" fill="#E0855C"/>
<path d="M80.5333 223.107C80.5333 223.107 101.933 227.43 132.867 243.589C163.8 259.748 189.4 253.131 198.433 256.257C207.467 259.382 224.6 256.955 227.4 259.382C230.2 261.81 232.033 266.065 230.367 267.894C230.367 267.894 237.833 284.984 237.133 286.115C236.433 287.245 233.833 287.146 232.6 286.88C231.367 286.614 220.5 281.227 208 279C195.5 276.772 161.033 271.984 133.567 270.587C106.1 269.191 66.1 266.431 66.1 266.431C66.1 266.431 67.0333 232.816 80.5333 223.107Z" fill="#FFEDE5"/>
<path d="M228.1 268.592C227.033 268.592 225.6 268.393 223.767 267.761C223.6 267.695 223.5 267.495 223.567 267.329C223.633 267.163 223.833 267.063 224 267.129C228.133 268.592 230.133 267.595 230.167 267.595C230.333 267.495 230.533 267.562 230.6 267.728C230.7 267.894 230.633 268.094 230.467 268.16C230.433 268.16 229.667 268.592 228.1 268.592Z" fill="#472938"/>
<path d="M15.9667 273.314C13.6333 273.314 12.5 272.582 12.4334 272.549C12.2667 272.449 12.2333 272.25 12.3333 272.084C12.4333 271.917 12.6333 271.884 12.8 271.984C12.8 271.984 14 272.715 16.3334 272.616C18.7667 272.549 21.4 271.352 21.4334 271.352C21.6 271.286 21.8 271.352 21.8667 271.518C21.9334 271.685 21.8667 271.884 21.7 271.951C21.6 272.017 18.9 273.181 16.3667 273.281C16.2334 273.314 16.1 273.314 15.9667 273.314Z" fill="#472938"/>
</svg>
