<svg width="230" height="335" viewBox="0 0 230 335" fill="none" xmlns="http://www.w3.org/2000/svg">
<path d="M61.3 245.412C41.1 296.229 46.8667 330.562 46.8667 330.562C66.0334 334.066 85.5 335.5 104.967 334.867C129.633 334.066 152.433 326.392 173.1 314.747C173.8 286.519 164.167 261.328 157.3 247.014C113.133 268.402 74.6 252.419 61.3 245.412Z" fill="#AB8DA8"/>
<path d="M67.2333 231.732C65.0666 236.404 63.0666 240.975 61.3333 245.412C74.5999 252.419 113.167 268.435 157.3 247.014C153.533 239.173 150.567 234.602 150.567 234.602C150.567 234.602 94.3999 173.475 67.2333 231.732Z" fill="#FEF9EF"/>
<path d="M111.1 334.499V316.916L126.367 306.305L116.267 320.419L117.3 333.999L111.1 334.499Z" fill="#543753"/>
<path d="M38.5332 121.625C38.5332 121.625 36.9999 122.192 36.7332 137.74C36.4666 153.289 35.2999 184.219 35.2999 184.219C35.2999 184.219 21.1999 171.106 20.1666 164.5C19.1332 157.893 19.5666 151.954 18.8666 148.317C18.1666 144.681 18.0332 134.737 18.3332 132.869C18.6332 131.001 13.8999 130.7 12.5999 133.47C11.2999 136.239 10.8666 145.448 10.1999 145.782C9.53322 146.115 1.89988 146.816 1.16655 148.484C0.433214 150.153 1.73322 153.189 0.599881 155.725C-0.533452 158.26 0.699881 160.062 0.599881 161.997C0.499881 163.933 0.0332125 164.667 0.899879 167.603C1.76655 170.539 1.93321 173.008 3.33321 173.475L4.73321 173.942L9.63321 175.611C9.63321 175.611 30.6332 222.957 41.0332 223.991C51.4332 225.026 56.8666 216.751 58.1666 210.078C59.4666 203.405 66.4332 163.432 66.4332 163.432L38.5332 121.625Z" fill="#FFEDE5"/>
<path d="M50.3333 154.523L61.8666 189.591L66.4332 163.399L50.3333 154.523Z" fill="#E0855C"/>
<path d="M35.2998 184.186C35.2998 184.186 45.0998 192.427 48.3332 199.2C48.3332 199.2 43.0998 185.32 35.4998 178.881L35.2998 184.186Z" fill="#E0855C"/>
<path d="M6.36646 173.275C6.36646 173.275 16.5998 173.008 17.4331 172.374C18.2664 171.74 18.2998 168.737 17.8664 168.37C17.8664 168.37 18.6998 163.999 17.9331 162.865C17.9331 162.865 18.2331 159.628 17.8998 157.727C17.8998 157.727 19.5998 167.469 19.3998 169.004C19.1998 170.539 19.9998 173.142 15.3998 173.909C10.7998 174.677 6.36646 173.275 6.36646 173.275Z" fill="#E0855C"/>
<path d="M17.9332 162.932C17.8999 162.932 17.8999 162.932 17.8666 162.932C17.6999 162.898 17.5666 162.731 17.5999 162.565C18.0332 159.862 17.3332 154.624 17.3332 154.59V154.523V154.457C17.6332 153.289 18.2666 149.986 17.3999 148.985C16.6333 148.084 9.23324 147.85 4.73324 147.917C4.56657 147.917 4.3999 147.784 4.3999 147.583C4.3999 147.383 4.53324 147.25 4.73324 147.25C6.73324 147.216 16.6999 147.15 17.8999 148.551C19.0999 149.952 18.1666 153.856 17.9999 154.557C18.0666 155.191 18.6666 159.995 18.2333 162.665C18.2333 162.832 18.0666 162.932 17.9332 162.932Z" fill="#472938"/>
<path d="M17.6665 154.857C17.6332 154.857 17.6665 154.857 17.6665 154.857L6.93319 154.357C6.73319 154.357 6.59985 154.19 6.59985 154.023C6.59985 153.823 6.73319 153.689 6.93319 153.689L17.6665 154.19C17.8665 154.19 17.9999 154.357 17.9999 154.523C17.9999 154.724 17.8332 154.857 17.6665 154.857Z" fill="#472938"/>
<path d="M17.8334 168.704H7.26668C7.06668 168.704 6.93335 168.571 6.93335 168.37C6.93335 168.17 7.06668 168.037 7.26668 168.037H17.8334C18.0334 168.037 18.1667 168.17 18.1667 168.37C18.1667 168.571 18.0334 168.704 17.8334 168.704Z" fill="#472938"/>
<path d="M18.0331 161.43H5.89974C5.69974 161.43 5.56641 161.297 5.56641 161.097C5.56641 160.896 5.69974 160.763 5.89974 160.763H18.0331C18.2331 160.763 18.3664 160.896 18.3664 161.097C18.3664 161.297 18.2331 161.43 18.0331 161.43Z" fill="#472938"/>
<path d="M198.967 105.375L219.166 104.608C220.033 104.575 220.766 105.242 220.8 106.109L222.366 147.817C222.4 148.684 221.733 149.418 220.866 149.452L200.667 150.219C199.8 150.253 199.067 149.585 199.033 148.718L197.467 107.01C197.433 106.109 198.1 105.409 198.967 105.375Z" fill="#3B2645"/>
<path d="M200.6 148.851C200.467 148.851 200.367 148.751 200.367 148.618L198.8 106.91C198.8 106.843 198.833 106.777 198.867 106.743C198.9 106.71 198.967 106.677 199.033 106.677L219.233 105.909C219.367 105.909 219.467 106.009 219.467 106.143L221.033 147.85C221.033 147.984 220.933 148.084 220.8 148.084L200.6 148.851Z" fill="#FEF9EF"/>
<path d="M136.333 100.204C136.333 100.204 157.533 102.339 161.467 119.556C165.4 136.773 172.667 177.679 172.667 177.679C172.667 177.679 188.133 152.889 189.367 148.951C190.6 145.014 194.6 131.701 194.467 127.163C194.333 122.626 198.767 125.862 198.767 131.267L199.433 149.152C199.467 149.752 199.967 150.219 200.567 150.186H200.6L221.067 148.651C221.767 148.618 222.267 148.017 222.233 147.316V147.083C222.233 147.083 220.767 144.047 221.2 142.645C221.633 141.244 225.133 141.11 225.533 141.444C225.933 141.778 228.1 145.948 228.033 147.083C227.967 148.217 225.433 151.754 223.767 152.288C222.1 152.822 205.5 156.826 202.1 161.964C198.7 167.102 183.833 212.113 171.767 215.583C159.7 219.053 147.933 186.321 145.167 176.745C142.4 167.169 136.333 100.204 136.333 100.204Z" fill="#FFEDE5"/>
<path d="M141.667 153.289C142.967 164.333 144.267 173.609 145.166 176.712C146.466 181.183 149.733 190.759 154.1 199.301L155.433 136.406L141.667 153.289Z" fill="#E0855C"/>
<path d="M221.667 129.566C221.667 129.566 228.9 133.269 228.767 134.837C228.633 136.406 227.267 139.208 225.867 139.075C224.467 138.941 221.833 137.54 221.1 135.905C220.367 134.27 220 129.032 221.667 129.566Z" fill="#FFEDE5"/>
<path d="M222.033 135.004C222.033 135.004 229.266 138.708 229.133 140.276C229 141.844 227.633 144.647 226.233 144.514C224.833 144.38 222.2 142.979 221.466 141.344C220.733 139.709 220.366 134.47 222.033 135.004Z" fill="#FFEDE5"/>
<path d="M222.033 122.959C222.033 122.959 229.266 126.663 229.133 128.231C229 129.799 227.633 132.602 226.233 132.469C224.833 132.335 222.2 130.934 221.466 129.299C220.733 127.664 220.366 122.392 222.033 122.959Z" fill="#FFEDE5"/>
<path d="M166.133 190.926C166.066 190.926 166.033 190.926 165.966 190.892C165.8 190.826 165.733 190.592 165.833 190.459L172.366 177.546C172.433 177.379 172.666 177.312 172.8 177.413C172.966 177.479 173.033 177.713 172.933 177.846L166.4 190.759C166.366 190.859 166.266 190.926 166.133 190.926Z" fill="#472938"/>
<path d="M72.4998 209.244C72.5331 220.088 67.2332 231.699 67.2332 231.699C67.2332 231.699 103.933 252.319 150.533 234.568C150.533 234.568 144.833 219.887 145.566 204.539C107.9 197.532 72.4998 209.244 72.4998 209.244Z" fill="#FFEDE5"/>
<path d="M38.5332 121.625C35.7999 125.729 46.3332 146.149 56.3999 166.802C65.5665 146.282 60.1999 121.358 57.0999 110.647C49.9999 113.383 41.2999 117.421 38.5332 121.625Z" fill="#FFEDE5"/>
<path d="M145.567 204.572C145.633 202.971 145.8 201.369 146.033 199.768C146.167 198.8 146.333 197.766 146.5 196.665C116.6 188.49 80.9999 197.832 70.9666 200.802C71.9332 204.105 72.4999 206.975 72.4999 209.244C72.4999 209.244 107.9 197.532 145.567 204.572Z" fill="#FEF9EF"/>
<path d="M56.4 167.903C56.2667 167.903 56.1667 167.837 56.1 167.703L48.6667 151.687C48.6 151.521 48.6667 151.32 48.8333 151.254C49 151.187 49.2 151.254 49.2667 151.42L56.7 167.436C56.7667 167.603 56.7 167.803 56.5333 167.87C56.5 167.903 56.4333 167.903 56.4 167.903Z" fill="#472938"/>
<path d="M113.4 238.606C113.915 238.606 114.333 238.187 114.333 237.671C114.333 237.156 113.915 236.737 113.4 236.737C112.884 236.737 112.467 237.156 112.467 237.671C112.467 238.187 112.884 238.606 113.4 238.606Z" fill="#E0855C"/>
<path d="M153.833 138.374C153.833 138.141 153.833 137.907 153.833 137.707C153.833 137.607 153.833 137.473 153.833 137.373C153.833 137.106 153.833 136.873 153.8 136.606C153.8 136.539 153.8 136.472 153.8 136.372C153.8 136.039 153.766 135.738 153.766 135.438V135.238C153.766 135.004 153.733 134.737 153.733 134.504C153.733 134.404 153.733 134.304 153.7 134.204C153.7 134.003 153.666 133.803 153.666 133.636L153.633 133.303C153.633 133.136 153.6 132.936 153.566 132.769C153.566 132.669 153.533 132.569 153.533 132.435C153.5 132.235 153.5 132.068 153.467 131.868C153.467 131.768 153.433 131.701 153.433 131.601C153.4 131.334 153.367 131.067 153.3 130.8C150.7 114.985 136.3 100.17 136.3 100.17C136.3 100.17 141.9 122.425 143.7 125.028C150.266 134.571 153.933 140.31 153.467 147.917C153.5 147.517 153.533 147.15 153.566 146.749C153.566 146.649 153.566 146.549 153.566 146.449C153.6 146.149 153.6 145.848 153.633 145.581C153.633 145.481 153.633 145.348 153.666 145.248C153.666 144.981 153.7 144.714 153.7 144.414L153.733 144.08C153.733 143.78 153.766 143.513 153.766 143.246C153.766 143.146 153.766 143.079 153.766 142.979C153.8 142.245 153.833 141.511 153.833 140.777C153.833 140.677 153.833 140.61 153.833 140.51C153.833 140.243 153.833 139.976 153.833 139.709V139.375C153.833 139.142 153.833 138.908 153.833 138.675V138.374Z" fill="#FFEDE5"/>
<path d="M143.7 125.061C141.9 122.459 136.333 100.204 136.333 100.204H132.1L67.2332 107.144C67.2332 107.144 62.6666 108.478 57.0999 110.614C60.1666 121.324 65.5666 146.282 56.3999 166.769C62.4332 179.181 68.2666 191.66 70.9332 200.802C80.9666 197.799 116.567 188.49 146.467 196.665C148.433 184.052 152.233 163.966 153.467 147.95C153.933 140.343 150.267 134.604 143.7 125.061Z" fill="#AB8DA8"/>
<path d="M78.0999 183.185C76.4999 183.185 74.8332 182.985 73.0665 182.551C72.8999 182.517 72.7665 182.317 72.8332 182.15C72.8665 181.984 73.0665 181.85 73.2332 181.917C79.5665 183.518 84.6999 181.683 90.0999 179.781C95.2332 177.946 100.533 176.078 107.333 176.845C121.067 178.38 143.433 174.677 143.667 174.643C143.867 174.61 144.033 174.743 144.067 174.91C144.1 175.077 143.967 175.277 143.8 175.31C143.567 175.344 121.1 179.081 107.3 177.546C100.667 176.812 95.4332 178.647 90.3665 180.449C86.2999 181.817 82.4332 183.185 78.0999 183.185Z" fill="#472938"/>
<path d="M129.367 11.25C129.367 11.25 146.767 12.985 141.533 36.141C136.3 59.297 141.467 58.2626 146 70.508C150.533 82.7533 126.833 74.6453 126.833 74.6453C126.833 74.6453 138.9 92.7297 74.7667 84.9221C21.8667 78.4824 57.1667 50.8888 57.1667 50.8888C57.1667 50.8888 41.2667 52.9908 60.3001 36.1744C73.7001 24.3294 80.8334 -19.2132 129.367 11.25Z" fill="#3B2645"/>
<path d="M117.833 75.3127C117.833 75.3127 112.467 94.1644 119.833 97.6679C125.5 100.371 132.1 100.204 132.1 100.204C132.1 100.204 129.833 150.186 101.833 150.72C73.8334 151.254 67.2334 107.144 67.2334 107.144C67.2334 107.144 78.6334 103.14 82.0334 95.2989C85.4334 87.4579 85.6001 76.4805 85.6001 76.4805L117.833 75.3127Z" fill="#FFEDE5"/>
<path d="M131.285 61.0603C134.138 56.1133 134.073 50.7285 131.14 49.0332C128.206 47.3379 123.515 49.9739 120.662 54.921C117.808 59.868 117.873 65.2527 120.807 66.9481C123.74 68.6434 128.431 66.0074 131.285 61.0603Z" fill="#E0855C"/>
<path d="M124.3 61.4324C124.2 61.4324 124.133 61.399 124.067 61.3323C123.933 61.1988 123.933 60.9987 124.067 60.8652L129.1 56.1272C129.233 55.9937 129.433 55.9937 129.567 56.1272C129.7 56.2607 129.7 56.4609 129.567 56.5943L124.533 61.3323C124.467 61.4324 124.4 61.4324 124.3 61.4324Z" fill="#472938"/>
<path d="M78.8379 63.1884C82.1341 62.4079 83.7412 57.2687 82.4275 51.7099C81.1137 46.151 77.3766 42.2774 74.0804 43.0579C70.7842 43.8385 69.1771 48.9776 70.4908 54.5364C71.8045 60.0953 75.5416 63.9689 78.8379 63.1884Z" fill="#FFEDE5"/>
<path d="M116.167 91.395C115.167 84.6551 117.833 75.2793 117.833 75.2793L85.5666 76.4805C85.5666 76.4805 85.5333 78.9162 85.1333 82.3195C85.1333 82.3529 101.233 101.872 116.167 91.395Z" fill="#E0855C"/>
<path d="M77.9668 56.3608C77.8668 56.3608 77.7668 56.294 77.7001 56.1939L74.5001 51.2891C74.4001 51.1223 74.4334 50.9221 74.6001 50.822C74.7668 50.7219 74.9668 50.7553 75.0668 50.9221L78.2668 55.8269C78.3668 55.9938 78.3334 56.1939 78.1668 56.294C78.1001 56.3608 78.0334 56.3608 77.9668 56.3608Z" fill="#472938"/>
<path d="M80.1 21.1597C80.1 21.1597 68.6334 83.1203 95.5667 89.5599C122.5 95.9995 132.1 38.2097 131.4 26.1979C130.7 14.1862 84.1 10.5493 80.1 21.1597Z" fill="#FFEDE5"/>
<path d="M115.934 49.4874C116.8 49.6542 117.367 50.4884 117.234 51.3559L117.067 52.3235C116.9 53.191 116.067 53.7582 115.2 53.6248C114.334 53.4579 113.767 52.6238 113.9 51.7563L114.067 50.7887C114.234 49.9211 115.067 49.3206 115.934 49.4874Z" fill="#472938"/>
<path d="M90.8334 46.6846C91.7334 46.6846 92.4334 47.3853 92.4334 48.2862V49.2538C92.4334 50.1213 91.7334 50.8554 90.8334 50.8554C89.9667 50.8554 89.2334 50.1547 89.2334 49.2538V48.2862C89.2334 47.3853 89.9334 46.6846 90.8334 46.6846Z" fill="#472938"/>
<path d="M121.8 47.819C121.8 47.819 120.6 46.0173 117.133 45.4167C113.667 44.8161 112.567 45.0163 112.533 43.9152C112.5 42.8142 120.267 41.1125 121.8 47.819Z" fill="#472938"/>
<path d="M85.8 43.2479C85.8 43.2479 87.5334 41.9467 91 42.5139C94.4667 43.1145 95.4334 43.6483 95.8334 42.614C96.2334 41.5796 89.4667 37.4089 85.8 43.2479Z" fill="#472938"/>
<path d="M92.4 66.871L106.8 68.506C106.8 68.506 104.567 78.2488 98.2 77.1144C91.8667 76.0133 92.4 66.871 92.4 66.871Z" fill="white"/>
<path d="M101.933 64.4687C100.933 64.4687 99.8333 64.2018 98.8333 63.7347C98.6667 63.6679 98.6 63.4677 98.6667 63.3009C98.7333 63.1341 98.9333 63.0673 99.1 63.1341C100.567 63.8348 102.2 64.0016 103.3 63.5678C103.767 63.401 104.067 63.1341 104.2 62.8338C104.633 61.7994 104.467 58.5963 104.267 54.8927L104.2 53.5914C103.833 46.7514 107.933 45.4501 108.1 45.3834C108.267 45.3167 108.467 45.4167 108.5 45.6169C108.567 45.7838 108.467 45.984 108.267 46.0173C108.1 46.0507 104.5 47.2519 104.833 53.558L104.9 54.8593C105.1 58.7965 105.3 61.9329 104.767 63.1007C104.567 63.5678 104.133 63.9682 103.5 64.2018C103.1 64.402 102.533 64.4687 101.933 64.4687Z" fill="#472938"/>
<path d="M126.833 55.6267C126.833 55.6267 129 38.9104 121.8 29.7681C121.8 29.7681 115.7 41.3127 105.7 37.3088C105.7 37.3088 91.9667 49.2205 77.9667 45.7504C63.9667 42.2803 68.9334 9.51496 89.2334 8.11359C109.533 6.71222 150.833 14.8869 126.833 55.6267Z" fill="#3B2645"/>
</svg>
